<?xml version="1.0" standalone="no"?>
<!DOCTYPE svg PUBLIC "-//W3C//DTD SVG 20010904//EN"
 "http://www.w3.org/TR/2001/REC-SVG-20010904/DTD/svg10.dtd">
<svg version="1.0" xmlns="http://www.w3.org/2000/svg"
 width="3242.000000pt" height="1992.000000pt" viewBox="0 0 3242.000000 1992.000000"
 preserveAspectRatio="xMidYMid meet">

<g transform="translate(0.000000,1992.000000) scale(0.100000,-0.100000)"
fill="#000000" stroke="none">
<path d="M22302 19894 c-27 -19 -25 -31 35 -178 40 -98 78 -234 68 -244 -2 -2
-21 16 -42 40 -89 101 -196 173 -249 166 -51 -6 -56 -33 -23 -132 17 -49 29
-105 27 -123 l-3 -34 -41 31 c-58 42 -118 61 -195 62 -117 1 -229 -55 -229
-116 0 -33 25 -46 89 -46 42 0 54 -5 81 -31 29 -29 70 -98 70 -117 0 -4 -46
-15 -102 -25 -140 -22 -259 -58 -409 -122 l-125 -54 -63 20 c-114 35 -232 20
-366 -46 -181 -89 -322 -235 -588 -610 -209 -295 -367 -469 -581 -641 -166
-134 -310 -220 -557 -332 -297 -137 -408 -203 -536 -325 -124 -118 -197 -235
-248 -398 l-27 -86 -67 33 c-153 75 -272 91 -571 74 -392 -21 -677 -72 -1095
-195 -336 -99 -542 -181 -700 -280 -38 -24 -158 -110 -266 -192 -109 -81 -255
-184 -325 -227 -148 -91 -239 -153 -306 -208 -26 -22 -52 -37 -57 -34 -5 4
-57 42 -115 85 -233 176 -400 253 -821 376 -458 134 -780 186 -1175 189 -229
1 -270 -6 -407 -69 -161 -74 -361 -236 -463 -374 -30 -40 -50 -58 -60 -55 -40
15 -258 56 -370 70 -68 8 -125 16 -126 17 -2 1 22 59 52 128 54 127 104 295
124 424 72 454 -29 1394 -165 1525 -32 31 -37 33 -88 27 -124 -12 -713 -281
-1032 -470 -103 -61 -257 -171 -290 -207 -10 -11 -25 -20 -33 -20 -8 0 -76 33
-151 74 -224 121 -357 165 -556 186 -125 13 -237 0 -434 -49 l-154 -39 -74 55
c-225 166 -646 392 -986 529 -68 27 -136 39 -167 29 -31 -10 -65 -90 -89 -210
-38 -192 -158 -1060 -179 -1295 l-7 -85 -70 -52 c-70 -52 -287 -178 -357 -206
l-37 -16 -68 86 c-161 204 -416 375 -627 420 -57 12 -112 14 -276 9 -113 -3
-250 -10 -305 -16 -263 -27 -581 -96 -900 -195 -423 -131 -536 -189 -857 -436
-81 -63 -221 -160 -312 -217 -261 -163 -448 -313 -691 -557 -198 -197 -306
-321 -661 -762 -150 -185 -255 -354 -401 -647 -116 -232 -356 -685 -409 -771
-24 -38 -62 -115 -84 -170 -23 -55 -64 -143 -90 -195 -27 -52 -54 -119 -61
-149 -24 -109 -360 -838 -454 -986 -45 -71 -138 -184 -272 -332 -220 -243
-249 -324 -136 -376 42 -19 64 -21 173 -20 141 2 248 24 331 69 27 15 95 65
152 112 105 87 148 112 191 112 14 0 63 -14 108 -32 158 -60 311 -39 459 62
71 48 90 49 207 10 104 -35 200 -40 297 -15 33 8 146 58 250 110 105 52 215
101 245 109 30 9 116 20 190 27 157 13 293 45 388 91 52 25 90 56 167 134 55
56 110 107 123 114 13 6 77 15 142 20 140 11 159 15 222 46 63 32 148 103 303
255 72 70 143 132 158 138 16 6 63 11 106 11 141 0 210 21 351 105 30 19 67
36 82 40 l28 7 0 -98 c0 -135 16 -258 37 -294 32 -54 91 -74 236 -80 l129 -5
31 -75 c47 -111 71 -145 137 -188 120 -80 255 -91 378 -31 165 81 293 268 462
674 78 188 168 368 254 510 67 108 195 289 202 282 2 -1 -10 -72 -26 -157 -40
-216 -76 -456 -97 -650 -26 -236 -26 -806 0 -1005 41 -312 130 -694 201 -856
l45 -104 45 -3 c25 -2 46 0 46 3 0 4 -13 50 -29 103 -16 54 -59 210 -95 347
-98 374 -114 484 -123 855 -11 501 43 980 186 1625 69 311 122 582 146 740 23
148 21 145 56 91 40 -60 63 -73 95 -51 40 26 32 63 -36 163 -82 121 -154 198
-283 304 -137 111 -236 176 -456 300 -172 95 -174 97 -145 108 16 7 115 40
220 75 270 89 395 155 456 239 58 81 27 118 -114 135 -51 6 -165 18 -253 26
-251 25 -253 13 27 148 134 65 288 146 343 179 120 75 215 162 215 199 0 52
-17 56 -260 63 -124 4 -245 10 -269 14 l-45 7 106 33 c217 68 544 254 686 391
34 33 62 68 62 79 0 10 -12 29 -26 43 -26 23 -26 26 -20 109 4 47 24 211 46
365 21 154 51 368 65 475 25 192 59 383 76 427 5 13 15 23 24 23 44 0 363
-146 635 -291 121 -65 335 -197 377 -233 l25 -21 -136 -68 c-174 -87 -335
-194 -381 -254 -19 -25 -35 -50 -35 -55 0 -18 21 -48 40 -58 18 -9 29 -3 78
42 110 103 260 194 454 276 211 90 379 131 563 139 287 12 498 -66 903 -335
112 -74 148 -86 177 -62 16 13 20 47 7 66 -4 7 -40 34 -80 62 l-72 50 38 34
c162 146 815 488 1142 598 98 33 103 32 125 -43 68 -230 121 -745 112 -1098
-7 -289 -40 -437 -155 -704 l-47 -110 -181 -11 c-142 -8 -187 -14 -208 -27
-14 -10 -26 -22 -26 -28 0 -15 21 -53 34 -61 6 -4 115 -5 241 -2 181 5 257 3
355 -10 154 -20 247 -40 583 -127 20 -5 37 -13 37 -18 0 -10 -189 -51 -419
-91 -184 -32 -216 -42 -237 -75 -18 -27 2 -57 55 -85 99 -50 442 -147 477
-133 6 2 15 0 18 -5 5 -8 -123 -71 -544 -271 -131 -62 -160 -84 -160 -121 0
-49 66 -64 357 -82 112 -7 200 -15 195 -19 -4 -4 -97 -58 -207 -119 -110 -62
-243 -140 -295 -175 -228 -151 -430 -328 -471 -412 -20 -41 -20 -45 -5 -68 32
-48 83 -25 136 59 24 41 246 234 255 224 2 -2 6 -30 10 -63 3 -33 15 -98 25
-145 23 -99 116 -629 125 -710 7 -57 14 -95 65 -340 53 -257 113 -795 130
-1175 5 -121 10 -351 10 -512 0 -322 -12 -462 -61 -733 -16 -91 -31 -177 -34
-192 l-4 -28 64 0 64 0 10 53 c15 70 36 259 56 497 14 158 16 274 12 615 -6
508 -31 807 -113 1343 -14 90 -24 168 -22 173 5 15 131 -92 237 -200 225 -230
424 -554 580 -941 l43 -105 -61 -129 c-34 -71 -78 -156 -98 -189 -50 -83 -170
-231 -309 -384 -215 -235 -253 -331 -151 -385 38 -21 55 -23 192 -23 233 1
330 37 514 191 102 86 150 114 194 114 13 0 70 -16 127 -36 96 -33 111 -36
190 -32 95 6 165 28 250 82 121 77 109 75 218 36 128 -45 234 -52 345 -21 43
12 159 62 260 112 234 118 264 128 422 140 214 16 365 53 472 116 39 23 50 25
107 18 79 -8 122 -35 191 -117 129 -154 301 -222 615 -244 123 -8 208 -37 384
-129 189 -99 269 -125 383 -125 72 0 104 6 173 30 47 16 97 30 112 30 16 0 56
-19 95 -45 82 -55 201 -95 283 -95 41 0 92 11 169 37 141 46 150 44 296 -77
176 -146 273 -183 485 -184 297 -2 316 90 72 359 -251 278 -317 369 -419 585
l-69 145 48 60 c87 107 191 304 288 545 278 687 674 1154 1181 1394 92 44 294
116 325 116 18 0 18 1 -5 -95 -72 -300 -140 -673 -175 -955 -35 -285 -46 -448
-46 -717 0 -370 27 -616 106 -973 54 -239 81 -330 136 -457 l41 -93 48 0 c27
0 49 2 49 4 0 2 -7 23 -15 47 -17 46 -95 335 -95 347 0 4 12 -15 26 -43 79
-156 171 -152 219 9 30 100 40 237 27 379 -23 250 -74 421 -198 672 -104 209
-116 261 -116 470 0 178 20 347 69 585 19 96 35 191 34 211 -1 20 3 57 9 82 9
41 7 55 -20 128 l-29 81 54 251 c30 139 57 262 60 274 5 21 8 20 69 -26 180
-136 428 -229 716 -267 152 -20 540 -14 685 11 50 8 111 18 136 21 l46 6 22
-70 c28 -95 107 -210 188 -277 122 -100 247 -145 408 -145 146 0 247 35 378
130 86 64 146 146 192 265 21 52 40 95 44 95 3 0 92 -12 196 -26 661 -91 1194
43 1522 383 71 75 71 75 77 46 3 -15 19 -119 36 -231 l31 -203 -27 -22 c-15
-12 -34 -27 -42 -33 -12 -8 -13 -18 -4 -45 10 -32 14 -125 14 -286 0 -123 -42
-193 -191 -315 -94 -77 -120 -104 -157 -161 -26 -40 -54 -133 -54 -181 0 -52
37 -111 98 -157 171 -127 195 -180 207 -464 8 -190 20 -297 39 -334 11 -20 32
-35 73 -51 32 -13 85 -37 117 -54 l59 -30 -7 -201 c-7 -215 2 -328 32 -379 34
-59 39 -49 68 143 3 25 10 117 14 205 l8 161 -3 -180 c-4 -219 -17 -352 -56
-555 -16 -85 -32 -181 -36 -212 l-6 -58 65 0 65 0 11 58 c16 78 49 386 61 562
35 504 16 1050 -59 1645 -27 218 -101 701 -116 759 l-7 28 44 -23 c164 -83
329 -207 489 -368 252 -252 440 -551 621 -988 181 -436 308 -622 482 -708 136
-67 271 -56 405 33 61 40 97 91 137 190 36 90 38 92 93 85 26 -2 89 0 140 6
103 11 159 36 185 80 24 41 37 140 37 284 0 115 2 127 18 127 9 0 64 -27 122
-60 130 -74 174 -87 325 -96 69 -4 132 -12 147 -21 16 -7 92 -77 170 -154 255
-252 339 -298 543 -299 123 -1 166 -23 259 -131 135 -159 296 -224 615 -249
69 -5 151 -17 181 -26 30 -9 145 -60 255 -115 110 -54 229 -106 265 -115 98
-25 221 -15 339 26 105 37 93 39 211 -36 85 -54 155 -76 252 -82 80 -4 95 -2
192 32 57 20 115 36 128 36 42 -1 101 -37 198 -119 163 -140 301 -191 512
-191 203 1 264 41 232 150 -17 56 -68 123 -216 287 -200 220 -284 335 -354
484 -21 46 -67 140 -102 209 -93 182 -281 621 -296 688 -6 31 -38 108 -69 170
-32 62 -71 147 -88 190 -17 42 -50 109 -74 147 -57 93 -345 634 -434 816 -171
351 -282 521 -551 844 -64 77 -165 201 -225 275 -61 74 -213 239 -340 366
-266 266 -446 412 -730 589 -96 60 -242 161 -323 224 -314 243 -438 310 -772
419 -528 172 -875 240 -1333 262 -218 10 -316 5 -410 -24 l-47 -14 -6 26 c-42
195 -113 329 -253 475 -123 128 -234 198 -533 335 -108 50 -234 112 -280 138
-239 136 -444 306 -641 533 -84 98 -121 146 -353 462 -226 307 -410 464 -604
514 -77 20 -204 16 -263 -9 l-38 -15 -128 54 c-70 30 -133 55 -139 55 -6 0
-13 21 -17 48 -14 117 -56 260 -104 357 -50 101 -167 265 -262 369 -54 59 -78
68 -117 40z m308 -520 c44 -105 60 -178 60 -269 0 -44 4 -86 9 -93 4 -7 49
-28 99 -47 272 -101 450 -231 610 -446 73 -99 85 -112 115 -122 27 -10 70 37
62 66 -15 50 -87 140 -225 280 l-146 147 61 0 c115 -1 258 -71 393 -195 78
-71 200 -223 320 -398 140 -203 285 -377 443 -533 259 -253 423 -357 914 -579
283 -128 502 -342 570 -556 70 -222 56 -548 -35 -820 -139 -417 -426 -679
-761 -697 -99 -5 -215 3 -237 17 -7 4 -18 60 -27 137 -81 699 -346 1442 -909
2550 -206 404 -207 406 -249 402 -24 -2 -35 -10 -45 -31 -12 -26 -11 -33 10
-75 497 -970 672 -1356 833 -1837 123 -367 199 -676 241 -990 25 -179 25 -560
1 -695 -118 -674 -586 -1029 -1358 -1030 -346 0 -727 68 -1011 182 l-128 51 0
722 0 723 62 11 c85 15 148 59 299 210 138 139 181 200 183 263 1 34 -4 45
-32 68 -63 52 -90 55 -557 55 -387 0 -435 -2 -481 -18 -147 -51 -133 -145 48
-333 121 -126 231 -211 301 -235 l52 -18 6 -188 c9 -268 10 -793 2 -1042 l-6
-212 -56 -29 c-126 -63 -367 -129 -621 -169 -578 -92 -1029 -25 -1357 201 -74
51 -197 172 -253 250 -84 114 -174 344 -207 523 -24 137 -24 519 0 725 20 164
66 402 97 503 l21 67 147 0 c81 -1 262 -5 402 -10 526 -18 826 22 1075 144
225 110 393 280 495 500 56 119 74 206 68 323 -10 183 -57 259 -276 444 -192
163 -491 460 -596 592 -102 129 -196 271 -246 373 -22 46 -44 85 -49 88 -4 3
-21 -18 -37 -47 -24 -41 -36 -53 -63 -58 -18 -4 -39 -13 -46 -20 -22 -22 -444
-866 -540 -1079 -344 -764 -518 -1342 -580 -1932 -6 -56 -7 -58 -43 -68 -54
-14 -228 -12 -315 4 -337 65 -617 414 -714 893 -27 134 -24 458 6 567 50 185
184 357 381 488 41 27 206 114 365 192 315 155 423 218 567 328 195 151 351
326 651 735 199 270 256 336 365 424 111 90 204 131 305 137 54 3 78 1 76 -6
-2 -6 -34 -37 -71 -69 -133 -116 -298 -319 -298 -367 0 -23 29 -46 59 -46 31
0 60 27 111 105 48 71 222 242 310 304 187 131 375 200 635 231 55 7 115 18
133 26 28 11 32 17 32 51 0 44 -23 97 -74 177 -20 31 -36 61 -36 66 0 20 76
-21 111 -60 20 -22 46 -66 58 -98 36 -95 57 -124 89 -120 19 2 32 13 45 38 16
30 18 56 15 198 -2 89 -1 162 3 162 11 0 58 -59 78 -99 29 -56 41 -108 51
-209 4 -51 14 -99 20 -107 7 -8 25 -15 41 -15 67 0 105 141 95 350 l-6 135 30
-45 c17 -25 43 -77 60 -116z m-4675 -2869 c89 -19 204 -58 275 -93 l55 -27 -3
-75 c-11 -270 96 -646 247 -869 l42 -62 -28 -57 c-26 -54 -28 -65 -28 -187 0
-148 15 -217 75 -357 66 -154 163 -267 339 -392 134 -96 174 -108 386 -117 99
-4 203 -12 232 -19 49 -11 52 -14 73 -63 32 -75 93 -177 151 -252 l50 -65 -12
-63 -12 -64 -102 -26 c-135 -34 -255 -82 -460 -185 -186 -93 -261 -122 -311
-122 -31 0 -36 5 -65 63 -28 54 -32 75 -36 157 -5 117 -10 140 -27 140 -8 0
-51 -32 -97 -71 -45 -40 -103 -81 -128 -93 -61 -28 -179 -29 -234 -2 -59 29
-68 57 -65 199 3 104 0 127 -15 150 -28 43 -53 34 -124 -43 -107 -114 -182
-126 -275 -42 l-40 36 4 91 c4 83 8 98 55 200 58 124 71 165 54 165 -17 0 -68
-27 -134 -72 -95 -65 -161 -91 -207 -83 -80 14 -190 148 -190 233 0 52 26 97
88 148 121 101 185 174 168 191 -3 3 -52 -2 -110 -11 -58 -9 -129 -16 -158
-16 -155 0 -243 82 -236 220 5 87 23 111 141 187 103 67 137 106 137 158 l0
30 -93 0 c-120 1 -180 27 -214 95 -13 24 -23 55 -23 69 0 48 38 105 110 164
62 50 70 61 70 91 0 19 -7 41 -15 49 -47 47 -565 14 -750 -48 -248 -83 -617
-328 -903 -599 l-73 -69 -27 21 c-33 27 -256 175 -383 255 l-93 59 34 29 c220
187 702 509 990 662 256 136 567 237 990 321 419 84 706 103 905 61z m-12023
-54 c189 -43 372 -141 474 -255 68 -76 125 -159 116 -168 -11 -10 -145 -46
-244 -64 -110 -20 -149 -47 -131 -87 26 -56 105 -79 341 -98 l142 -12 0 -67
c0 -44 -5 -71 -13 -79 -8 -6 -126 -65 -263 -131 -137 -65 -264 -131 -281 -145
-41 -32 -45 -77 -10 -99 35 -23 132 -45 253 -58 l112 -12 7 -68 c3 -37 4 -72
0 -78 -3 -5 -89 -36 -192 -70 -267 -87 -337 -125 -312 -172 10 -18 8 -19 -13
-13 -12 4 -36 15 -53 24 -29 16 -30 20 -33 95 -3 90 6 111 68 152 22 15 40 32
40 39 0 20 -60 67 -119 95 l-53 24 7 46 c11 74 42 110 142 167 70 39 82 51 62
64 -64 41 -239 -40 -275 -128 -34 -81 -7 -173 63 -211 l42 -23 -45 -92 c-41
-84 -45 -97 -42 -152 5 -76 30 -114 100 -149 56 -28 151 -36 189 -16 33 18
254 -100 526 -281 46 -29 83 -57 83 -61 0 -10 -151 -70 -191 -75 -55 -8 -74
17 -83 107 -4 39 -10 78 -12 85 -3 8 -32 16 -72 20 -101 10 -134 21 -204 69
-60 41 -108 64 -108 51 0 -18 31 -74 55 -97 15 -15 69 -43 120 -63 104 -40
123 -55 161 -122 57 -100 104 -133 187 -133 78 0 141 25 181 72 l34 39 72 -67
c39 -37 76 -76 81 -86 6 -12 5 -58 -6 -140 -18 -138 -62 -405 -72 -428 -11
-28 -31 63 -32 146 -1 48 -6 87 -14 98 -11 16 -19 11 -87 -49 -109 -96 -157
-119 -250 -120 -83 0 -122 14 -153 57 -17 23 -20 41 -18 145 1 132 -9 166 -50
171 -20 2 -36 -10 -84 -64 -88 -100 -146 -116 -227 -65 -63 40 -71 59 -66 155
4 69 11 95 46 171 22 50 48 109 56 132 l15 43 -36 -15 c-19 -8 -75 -40 -123
-70 -112 -71 -148 -82 -206 -60 -78 30 -154 137 -154 218 0 53 28 93 115 164
73 60 125 118 125 140 0 13 -8 15 -52 9 -29 -4 -88 -11 -131 -16 -192 -23
-297 48 -297 201 0 75 26 109 139 184 100 65 120 88 124 140 l2 30 -96 6
c-105 7 -142 21 -183 69 -21 25 -26 42 -26 83 0 66 22 103 93 157 67 50 87 89
63 124 -11 18 -29 27 -63 32 -100 15 -480 -16 -612 -51 -229 -59 -556 -269
-894 -573 -191 -171 -297 -298 -527 -632 -179 -259 -219 -308 -356 -432 -279
-252 -359 -310 -449 -328 -79 -16 -155 -55 -155 -81 0 -9 57 -29 85 -29 11 0
30 -6 41 -14 19 -14 19 -15 -5 -39 -12 -14 -54 -38 -91 -53 -56 -24 -67 -31
-60 -45 5 -9 22 -22 38 -28 29 -12 30 -13 25 -79 -4 -44 -13 -81 -28 -107 -32
-56 -232 -248 -402 -385 l-142 -115 35 -18 c19 -9 34 -19 34 -21 0 -2 -29 -18
-65 -35 -87 -40 -176 -101 -169 -113 6 -10 29 -9 147 8 59 8 61 -2 12 -95 -45
-86 -159 -237 -324 -429 -75 -88 -131 -162 -131 -173 0 -12 9 -34 21 -50 l21
-29 -32 -58 c-154 -274 -526 -699 -725 -827 -94 -60 -279 -103 -319 -73 -29
22 -13 51 72 125 146 130 225 225 334 408 33 55 348 676 699 1380 711 1427
655 1326 945 1681 309 379 785 844 1109 1086 272 204 679 459 875 550 310 145
851 282 1285 327 128 14 343 5 447 -18z m20868 -57 c331 -41 746 -137 1035
-240 356 -127 990 -526 1393 -878 176 -153 677 -655 804 -806 134 -159 314
-390 381 -489 28 -42 355 -684 728 -1431 379 -758 707 -1401 744 -1460 95
-150 168 -242 248 -313 133 -118 167 -154 167 -176 0 -36 -40 -47 -118 -33
-177 30 -265 84 -463 282 -225 225 -447 507 -533 678 l-27 53 22 35 c13 21 19
43 15 57 -3 12 -47 70 -97 127 -212 241 -372 460 -405 552 -7 22 -14 42 -14
44 0 9 51 3 120 -12 55 -13 74 -14 83 -5 17 18 -27 51 -146 111 l-98 50 35 17
c20 9 36 20 36 23 0 4 -66 60 -147 126 -174 140 -385 342 -418 399 -15 27 -24
63 -28 111 l-6 70 34 18 c54 30 50 41 -23 73 -64 27 -122 66 -122 83 0 9 43
26 90 36 53 10 64 23 43 46 -26 29 -59 44 -142 62 -103 23 -190 87 -478 348
-149 136 -167 157 -358 433 -257 370 -353 487 -544 662 -361 331 -737 571
-984 628 -168 39 -616 64 -664 37 -26 -14 -37 -44 -29 -77 3 -12 37 -48 74
-78 38 -30 76 -71 85 -90 38 -80 10 -161 -73 -206 -36 -20 -60 -25 -139 -27
l-96 -3 2 -36 c3 -49 30 -83 98 -125 103 -64 147 -101 166 -144 23 -50 23 -77
4 -142 -38 -128 -161 -168 -389 -128 -48 8 -94 14 -102 12 -28 -6 22 -72 121
-158 105 -92 128 -124 128 -181 0 -81 -94 -206 -172 -230 -55 -16 -97 -3 -195
61 -83 54 -149 90 -166 90 -16 0 -6 -28 53 -155 49 -104 52 -115 55 -205 l4
-95 -45 -42 c-88 -81 -166 -67 -268 48 -71 79 -99 88 -124 39 -12 -24 -15 -58
-14 -154 2 -102 -1 -129 -14 -150 -29 -44 -73 -61 -162 -61 -97 0 -145 20
-235 101 -84 75 -108 90 -123 75 -6 -6 -14 -60 -17 -124 -6 -99 -10 -119 -36
-167 -48 -90 -75 -85 -364 56 l-195 96 -53 289 c-48 266 -51 292 -38 318 18
33 58 41 226 41 166 1 223 21 376 131 206 148 318 311 376 549 30 122 30 277
0 344 l-22 48 56 62 c203 224 328 539 355 901 7 83 13 151 14 152 0 1 44 14
96 28 177 47 350 52 619 19z m-13770 -354 c332 -25 816 -129 1145 -247 205
-73 466 -215 775 -423 264 -178 397 -280 595 -457 369 -330 719 -707 1004
-1083 l102 -135 639 -1280 c352 -704 668 -1328 703 -1386 123 -206 163 -254
380 -456 55 -51 63 -89 21 -99 -67 -17 -223 24 -311 83 -200 132 -565 548
-708 806 l-38 69 20 40 c12 22 18 48 16 59 -3 10 -40 58 -82 106 -257 292
-372 451 -405 561 -6 19 -4 22 18 22 13 0 55 -7 92 -16 50 -11 70 -12 78 -4
15 16 -27 48 -141 107 l-92 48 35 18 c19 9 34 19 34 21 0 2 -66 57 -147 122
-154 124 -322 279 -376 348 -25 32 -33 52 -38 105 -4 36 -10 74 -14 84 -5 12
-3 17 8 17 17 0 75 46 67 52 -3 3 -30 15 -60 27 -57 24 -120 66 -120 80 0 10
39 25 95 37 80 18 33 64 -99 99 -95 26 -146 60 -351 238 -226 195 -252 225
-501 582 -210 303 -278 384 -470 560 -315 288 -643 504 -880 578 -124 39 -509
77 -628 63 -64 -8 -86 -25 -86 -66 0 -23 15 -42 75 -95 83 -74 103 -115 91
-181 -9 -48 -59 -98 -111 -113 -22 -6 -75 -11 -117 -11 l-78 0 0 -35 c0 -46
35 -84 141 -155 103 -67 134 -116 125 -194 -16 -142 -129 -204 -321 -176 -144
21 -165 23 -165 13 0 -23 51 -82 128 -147 125 -105 143 -151 96 -243 -51 -103
-135 -163 -208 -149 -18 4 -74 33 -124 65 -99 63 -149 87 -159 77 -4 -3 8 -39
26 -79 77 -167 84 -189 85 -269 1 -72 -1 -78 -29 -108 -86 -91 -169 -80 -271
36 -68 77 -93 82 -119 27 -15 -30 -16 -52 -10 -133 9 -127 -4 -162 -71 -192
-38 -16 -61 -19 -114 -16 -82 6 -137 34 -233 118 -38 33 -72 60 -77 60 -19 0
-25 -28 -31 -130 -4 -91 -9 -112 -34 -159 l-29 -53 -57 5 c-32 3 -81 17 -115
33 l-58 29 -67 370 c-37 204 -66 371 -65 373 2 1 34 6 72 11 92 12 142 31 223
86 173 116 273 225 342 370 64 135 83 221 84 365 0 132 -8 161 -68 242 -11 15
-19 30 -16 32 2 2 47 23 99 46 108 47 130 64 130 96 0 40 -40 56 -173 70 -67
7 -130 13 -139 14 -22 0 -31 32 -23 79 6 38 8 39 64 50 89 17 209 59 252 88
92 61 50 112 -138 168 l-62 18 17 30 c9 16 53 68 96 114 163 173 380 260 701
282 11 0 81 -4 155 -9z m-6194 -295 c-25 -19 -36 -19 -36 0 0 10 10 15 28 15
26 -1 26 -1 8 -15z m10084 -85 c4 0 11 -39 14 -87 8 -107 24 -205 43 -258 36
-100 43 -145 31 -198 -6 -29 -17 -64 -24 -79 -24 -46 -109 -122 -241 -213
-153 -106 -238 -174 -390 -313 -63 -57 -115 -103 -116 -101 -2 2 -29 35 -61
72 l-58 68 62 67 c105 113 181 180 270 239 47 31 122 85 167 119 45 35 118 84
162 109 74 43 131 93 131 116 0 24 -132 -2 -274 -54 -111 -40 -249 -144 -490
-369 l-128 -120 -82 81 -81 81 80 81 c224 227 634 500 834 555 59 17 121 60
121 85 0 18 -54 21 -116 6 -214 -53 -606 -320 -894 -608 l-71 -70 -64 56 -65
57 75 87 c209 244 590 482 898 562 81 21 219 40 245 33 8 -2 17 -4 22 -4z
m-11986 -87 c9 -115 23 -191 52 -282 27 -82 29 -121 12 -189 -16 -64 -105
-152 -265 -261 -201 -137 -467 -378 -574 -521 -47 -62 -92 -147 -87 -162 2 -6
60 49 128 122 258 275 542 518 685 587 99 47 124 44 140 -20 7 -26 4 -28 -108
-81 -103 -49 -127 -65 -234 -163 -268 -245 -300 -280 -413 -450 -126 -189
-184 -305 -271 -536 -73 -197 -94 -227 -160 -227 -37 0 -48 5 -85 45 -119 123
-93 362 76 710 74 153 113 207 287 402 184 206 259 277 368 349 50 33 119 83
155 110 36 28 88 64 115 79 89 51 130 82 149 115 l18 32 -48 -8 c-75 -10 -206
-50 -276 -83 -110 -53 -380 -283 -625 -534 -203 -208 -286 -329 -399 -579 -63
-139 -84 -175 -126 -208 -47 -36 -106 -27 -136 22 -104 169 14 579 276 958
213 308 383 474 654 638 222 133 461 215 645 221 l41 1 6 -87z m22566 -38
c288 -61 660 -272 890 -504 223 -226 465 -596 559 -856 91 -250 95 -478 10
-549 -36 -31 -63 -33 -105 -7 -49 30 -80 77 -149 231 -144 316 -276 486 -632
813 -267 245 -366 320 -480 366 -86 35 -234 73 -268 69 l-25 -3 19 -32 c13
-20 54 -52 114 -87 52 -31 126 -80 163 -109 38 -30 105 -78 149 -107 124 -83
185 -140 373 -350 220 -245 275 -327 370 -551 83 -195 122 -379 103 -483 -27
-145 -123 -235 -207 -194 -38 18 -63 66 -126 238 -69 190 -166 383 -277 551
-105 160 -156 218 -311 359 -63 58 -147 134 -185 170 -57 53 -93 75 -188 119
-118 54 -119 55 -113 84 12 62 35 69 116 37 151 -59 438 -302 748 -629 78 -83
142 -145 142 -138 0 24 -48 113 -95 177 -63 86 -284 304 -411 406 -55 44 -149
114 -210 154 -147 100 -247 199 -262 262 -18 71 -15 113 18 213 30 95 50 219
50 312 l0 53 74 0 c41 0 107 -7 146 -15z m-15730 -251 c0 -12 -6 -15 -22 -10
-13 3 -30 6 -38 7 -8 0 -4 5 10 9 39 13 50 11 50 -6z m2088 -80 c272 -56 651
-276 864 -503 213 -225 442 -590 522 -831 75 -227 73 -419 -6 -485 -73 -62
-141 0 -243 222 -66 144 -80 169 -153 283 -65 100 -148 193 -323 365 -288 282
-459 421 -571 466 -108 43 -288 87 -288 71 0 -26 52 -75 122 -116 46 -27 119
-77 163 -111 44 -34 114 -83 155 -109 90 -59 164 -128 329 -311 160 -177 188
-211 249 -311 60 -97 154 -312 184 -420 31 -115 32 -292 1 -350 -34 -63 -86
-104 -132 -104 -60 0 -88 40 -156 226 -77 211 -153 361 -274 542 -105 157 -94
146 -460 489 -52 49 -90 73 -178 114 -98 45 -113 55 -113 76 0 13 5 33 11 45
9 17 17 19 47 13 133 -25 410 -246 741 -593 85 -89 157 -160 159 -157 2 2 -8
29 -22 61 -71 154 -378 455 -656 642 -156 105 -233 181 -254 252 -21 72 -21
82 13 193 32 103 51 216 51 303 l0 54 70 0 c39 0 106 -7 148 -16z m5032 -112
c30 -17 97 -45 149 -62 104 -35 192 -42 353 -27 l86 8 6 -98 c11 -181 26 -337
41 -407 8 -38 14 -71 12 -72 -1 -1 -63 1 -137 6 -223 13 -338 68 -520 249
-147 147 -180 212 -180 359 0 48 5 104 11 125 l10 37 57 -43 c31 -24 82 -58
112 -75z m-12210 59 c24 -7 24 -8 -18 -30 -24 -12 -45 -21 -47 -19 -2 2 -1 15
2 31 6 28 17 31 63 18z m18827 -112 c23 -111 9 -218 -42 -304 -57 -99 -259
-286 -365 -340 -69 -35 -185 -65 -251 -65 l-56 0 24 93 c31 120 53 311 53 465
l0 123 68 -8 c189 -22 352 1 480 67 31 16 62 28 67 26 6 -1 15 -27 22 -57z
m-13582 -209 c37 -109 36 -113 -27 -106 -29 3 -111 8 -183 12 -184 9 -186 11
-69 68 212 101 239 113 246 107 4 -4 19 -40 33 -81z m5093 15 c24 -53 18 -59
-105 -117 -109 -51 -128 -64 -248 -174 -71 -65 -170 -157 -218 -204 l-89 -85
-34 40 -33 40 87 88 c184 187 379 342 507 403 85 42 117 44 133 9z m-11882
-135 c33 -22 64 -42 69 -44 17 -6 -36 -55 -95 -89 -62 -35 -324 -251 -415
-342 -52 -52 -64 -71 -89 -145 -16 -47 -55 -136 -88 -199 -32 -63 -68 -140
-79 -172 -53 -145 22 -93 107 74 31 62 80 141 108 177 29 36 68 88 86 115 71
106 352 365 451 415 46 24 55 14 38 -38 -20 -61 -57 -112 -165 -223 -179 -187
-322 -398 -456 -677 -86 -181 -119 -234 -187 -305 -108 -114 -235 -122 -278
-19 -23 55 -12 221 21 336 65 217 165 442 265 593 68 102 256 308 403 441 102
91 181 142 224 142 12 0 48 -18 80 -40z m12018 -42 c36 -24 65 -49 65 -55 1
-13 -37 -42 -136 -105 -64 -40 -408 -331 -442 -374 -11 -14 -28 -51 -38 -80
-9 -30 -19 -54 -23 -54 -10 0 -130 149 -130 163 0 20 283 321 388 412 109 94
175 135 219 135 22 0 55 -14 97 -42z m10069 -89 c92 -47 386 -329 528 -506
194 -243 397 -776 375 -986 -10 -102 -52 -147 -133 -147 -122 1 -246 137 -364
401 -115 256 -308 548 -464 699 -124 121 -204 238 -205 298 0 29 6 28 75 -13
117 -71 379 -319 455 -430 18 -27 60 -83 92 -123 32 -41 79 -118 106 -175 45
-94 99 -167 124 -167 22 0 -6 82 -91 260 -49 102 -98 214 -110 250 -17 52 -32
77 -74 117 -95 94 -365 318 -424 352 -85 51 -146 111 -112 111 6 0 36 18 66
40 65 46 95 50 156 19z m-15293 -101 c-50 -108 -240 -291 -365 -354 -90 -44
-176 -68 -187 -51 -4 7 -8 38 -8 69 0 53 2 59 33 81 79 60 535 313 545 303 2
-2 -6 -24 -18 -48z m5317 -48 c-8 -59 -58 -130 -178 -255 -100 -104 -218 -252
-284 -357 -17 -27 -33 -47 -37 -45 -4 1 -27 31 -52 66 l-45 63 52 76 c58 85
264 298 372 384 69 55 151 108 169 108 5 0 6 -18 3 -40z m-3661 -135 c103 -51
457 -404 556 -555 142 -216 288 -596 304 -795 14 -165 -61 -246 -183 -200
-109 42 -179 137 -327 445 -63 131 -180 322 -274 444 -25 34 -94 111 -153 172
-59 61 -121 135 -138 165 -32 57 -41 109 -18 109 62 0 401 -307 497 -450 13
-19 47 -64 76 -100 29 -36 75 -113 103 -171 46 -97 94 -159 122 -159 23 0 -5
79 -86 240 -40 80 -85 179 -99 220 -15 41 -33 85 -41 96 -34 52 -378 341 -465
391 -31 18 -66 43 -78 56 l-22 24 51 34 c104 70 104 70 175 34z m-10469 -160
c-4 -41 -13 -91 -21 -110 -9 -20 -93 -117 -187 -218 -494 -524 -655 -743 -933
-1274 -63 -120 -155 -294 -205 -388 -86 -160 -140 -278 -155 -335 -6 -20 3
-14 42 28 80 86 287 446 453 787 62 127 97 186 176 288 54 71 116 157 138 191
22 35 64 90 93 122 28 33 94 115 144 184 150 204 350 393 440 415 23 6 27 2
43 -39 11 -29 15 -55 10 -73 -8 -35 -59 -101 -165 -218 -105 -116 -200 -260
-474 -718 -351 -588 -618 -1004 -766 -1197 -41 -52 -117 -138 -170 -190 -171
-170 -269 -199 -432 -131 -43 18 -78 38 -78 44 0 7 28 44 63 83 55 64 152 211
244 373 18 31 55 114 84 186 36 90 62 142 90 173 60 69 165 229 284 432 154
264 167 282 339 474 126 142 379 524 462 699 20 45 47 77 113 135 47 42 147
139 221 214 74 76 139 138 144 138 5 0 6 -33 3 -75z m2283 30 l45 -23 -51 -48
c-28 -27 -79 -73 -113 -103 -163 -141 -332 -439 -335 -593 0 -36 3 -70 7 -74
14 -14 53 39 82 111 31 76 133 255 200 350 24 33 87 103 141 155 156 150 235
193 250 135 12 -47 -30 -109 -125 -184 -158 -124 -244 -263 -401 -648 -48
-117 -94 -223 -103 -237 -13 -19 -28 -25 -76 -31 -86 -10 -142 9 -167 57 -27
51 -15 294 22 468 49 227 284 588 435 665 75 39 111 39 189 0z m12005 -57 c30
-13 55 -28 55 -34 0 -11 -51 -60 -168 -161 -99 -87 -231 -276 -298 -430 -17
-41 -33 -76 -35 -78 -3 -2 -30 44 -62 102 l-58 105 37 66 c107 193 264 380
357 427 63 31 101 32 172 3z m255 -114 c0 -56 -36 -108 -125 -177 -89 -70
-151 -138 -215 -237 -49 -76 -133 -249 -181 -372 -19 -49 -36 -88 -39 -88 -10
0 -80 137 -80 156 0 31 103 230 178 344 87 133 151 208 247 290 105 89 153
120 187 120 26 0 28 -3 28 -36z m11685 -106 c77 -79 181 -180 231 -225 76 -68
96 -93 127 -157 39 -82 190 -331 297 -491 37 -55 121 -160 186 -234 152 -170
205 -244 343 -482 128 -218 217 -355 293 -450 40 -49 66 -99 114 -218 35 -84
86 -190 115 -235 29 -44 74 -118 101 -162 27 -45 80 -119 119 -164 38 -45 69
-86 69 -90 0 -10 -80 -44 -154 -65 -126 -37 -216 -1 -371 147 -108 103 -216
235 -337 413 -122 178 -469 734 -691 1107 -245 411 -360 586 -454 688 -185
203 -207 241 -178 317 17 43 19 45 51 40 103 -17 356 -269 533 -530 27 -40 66
-88 86 -106 20 -17 55 -62 77 -99 23 -37 78 -114 123 -172 119 -153 130 -171
268 -445 224 -444 443 -802 473 -773 11 12 -72 191 -200 433 -74 138 -175 329
-226 425 -259 488 -434 722 -952 1272 -150 159 -177 192 -186 231 -13 51 -16
167 -4 167 4 0 70 -64 147 -142z m-2368 107 c110 -55 269 -252 378 -470 78
-154 98 -227 120 -443 22 -204 16 -263 -30 -309 -31 -31 -37 -33 -106 -33 -41
0 -84 3 -95 6 -25 7 -60 78 -155 314 -124 311 -221 475 -345 587 -160 143
-182 166 -189 205 -9 49 -1 68 28 68 53 0 242 -156 341 -281 81 -102 206 -312
251 -420 34 -82 68 -130 81 -116 14 13 16 98 4 149 -18 77 -97 240 -170 349
-63 93 -166 204 -267 287 -29 24 -58 52 -63 63 -10 18 -5 22 42 44 69 31 112
31 175 0z m-21283 -120 c27 -41 20 -77 -29 -144 -153 -208 -271 -516 -251
-654 13 -85 37 -56 106 131 62 168 114 269 191 372 35 47 73 104 83 128 21 47
33 51 67 23 l24 -19 -49 -52 c-81 -86 -121 -189 -230 -580 -68 -244 -127 -355
-210 -394 -55 -26 -88 -21 -114 18 -46 68 -65 135 -70 253 -14 324 108 624
354 870 40 40 82 73 92 73 11 0 27 -11 36 -25z m12035 -79 c12 -18 21 -44 21
-56 0 -13 -34 -73 -74 -134 -83 -123 -161 -278 -201 -401 -38 -115 -48 -320
-15 -300 17 10 55 94 95 205 49 137 121 278 189 366 30 39 68 99 85 133 l31
61 30 -15 c16 -8 32 -19 35 -25 3 -5 -16 -34 -43 -62 -83 -89 -129 -197 -217
-518 -87 -314 -122 -397 -199 -468 -25 -23 -48 -42 -51 -42 -8 0 -47 65 -124
210 l-73 135 7 75 c20 228 106 457 233 624 83 108 221 245 249 246 1 0 11 -15
22 -34z m-2129 -154 c69 -70 166 -164 215 -208 78 -70 96 -93 137 -172 59
-114 255 -430 328 -527 30 -40 87 -108 127 -151 153 -169 187 -218 338 -479
108 -187 213 -348 275 -418 30 -34 58 -88 103 -199 73 -178 214 -413 330 -549
32 -36 57 -69 57 -72 0 -3 -35 -20 -77 -38 -101 -42 -194 -46 -263 -10 -224
117 -460 439 -1085 1483 -304 507 -392 639 -537 804 -63 72 -120 145 -126 162
-10 29 -7 56 13 105 34 83 300 -146 511 -442 42 -58 98 -128 124 -156 26 -27
60 -72 77 -100 17 -27 76 -111 133 -185 79 -103 118 -167 168 -270 74 -154
233 -452 323 -603 98 -165 189 -284 189 -246 -1 32 -75 191 -188 401 -66 123
-141 266 -167 318 -83 166 -244 441 -338 575 -156 224 -278 367 -593 700 -94
99 -179 196 -189 215 -19 37 -34 190 -19 190 5 0 65 -58 134 -128z m-9539 73
c11 -25 25 -69 31 -99 11 -53 11 -53 -46 -177 -144 -307 -180 -413 -192 -562
l-7 -78 26 12 c28 13 29 13 81 179 54 168 168 398 243 489 l28 33 45 -20 c25
-11 65 -24 89 -29 l44 -8 -86 -125 c-128 -186 -171 -262 -227 -405 -65 -164
-99 -224 -157 -275 -51 -45 -130 -73 -189 -68 l-37 3 2 100 c5 308 51 619 115
774 28 68 128 236 164 274 36 38 50 34 73 -18z m7305 16 c132 -76 336 -366
410 -583 35 -103 71 -404 59 -490 -13 -90 -69 -125 -180 -113 l-66 7 -28 56
c-16 31 -56 127 -91 212 -153 381 -247 530 -403 645 -83 61 -109 96 -115 157
-4 45 -3 48 19 48 33 0 79 -30 179 -115 149 -128 300 -341 386 -546 19 -46 45
-94 57 -107 20 -21 22 -22 28 -5 35 87 -30 270 -169 478 -61 92 -129 163 -239
254 -35 29 -64 56 -64 61 -1 6 -2 15 -3 21 -2 17 76 47 124 48 32 1 59 -7 96
-28z m13206 -56 c99 -78 255 -286 311 -418 80 -185 112 -351 105 -535 -5 -125
-22 -187 -73 -263 -20 -31 -32 -39 -55 -39 -80 0 -159 74 -210 196 -17 42 -52
148 -76 237 -116 413 -150 498 -238 597 l-58 64 22 18 c38 31 58 23 84 -34 13
-29 50 -88 83 -131 79 -103 130 -202 193 -372 86 -232 116 -258 114 -97 -2
155 -93 385 -238 601 -42 63 -76 121 -76 130 0 24 38 81 53 81 8 0 34 -16 59
-35z m-8437 -97 c17 -54 24 -92 19 -112 -3 -17 -41 -105 -84 -196 -114 -241
-157 -375 -174 -547 -4 -42 -2 -53 9 -53 30 0 52 38 79 136 52 183 192 474
275 572 l28 33 46 -20 c25 -11 66 -23 91 -26 25 -4 46 -10 46 -14 0 -3 -40
-64 -90 -136 -126 -183 -170 -262 -230 -410 -70 -174 -94 -219 -143 -272 -57
-62 -107 -85 -195 -91 l-74 -5 6 79 c3 44 8 129 11 189 13 242 45 450 91 592
28 87 140 287 192 345 47 52 64 40 97 -64z m-14630 -39 c58 -189 53 -211 -100
-454 -45 -71 -155 -258 -245 -415 -191 -335 -201 -351 -423 -670 -159 -228
-183 -257 -336 -411 -262 -262 -397 -350 -543 -357 -76 -4 -78 -4 -78 19 0 45
48 125 129 220 107 124 212 279 353 524 64 110 187 319 275 465 395 657 587
939 721 1060 62 56 183 140 202 140 4 0 24 -55 45 -121z m22702 -50 c128 -183
195 -365 227 -622 24 -182 42 -525 29 -538 -8 -8 -30 -8 -79 0 -150 27 -212
92 -304 324 -71 181 -98 229 -228 421 l-115 170 61 12 c33 7 74 20 92 29 39
20 44 16 104 -74 91 -139 188 -352 237 -525 27 -93 46 -125 77 -126 16 0 15
37 -4 151 -21 123 -69 257 -155 437 -104 217 -103 215 -74 307 23 77 49 118
69 112 6 -2 34 -37 63 -78z m-19539 15 c32 -9 23 -32 -58 -139 -117 -157 -177
-248 -203 -310 -49 -117 -137 -292 -154 -308 -10 -8 -31 -19 -47 -23 l-29 -7
7 59 c25 211 145 485 273 624 84 91 146 121 211 104z m6351 -122 c198 -202
315 -446 340 -716 21 -222 -37 -426 -121 -426 -103 0 -182 105 -246 330 -144
501 -168 563 -248 650 -30 32 -54 60 -54 64 0 5 54 36 64 36 3 0 18 -24 32
-52 15 -29 56 -93 91 -143 79 -110 101 -151 158 -305 47 -126 88 -214 104
-225 16 -9 24 61 18 139 -12 137 -107 360 -233 544 -35 51 -64 104 -64 116 0
28 36 76 57 76 8 0 54 -39 102 -88z m15882 37 c136 -88 224 -180 367 -385 165
-237 514 -803 802 -1299 172 -297 259 -427 370 -556 90 -104 150 -202 150
-245 0 -51 -121 -43 -238 17 -119 60 -243 159 -417 334 -148 149 -173 179
-345 425 -217 310 -252 366 -461 731 -86 151 -193 332 -238 402 -44 70 -95
155 -113 190 -46 89 -45 155 5 310 21 64 41 117 46 117 4 0 37 -19 72 -41z
m-22186 -46 c-3 -21 -18 -54 -31 -75 -35 -49 -134 -158 -145 -158 -16 0 -10
21 15 50 13 16 40 59 61 97 38 69 81 123 98 123 5 0 6 -16 2 -37z m12061 24
c9 -8 -23 -62 -69 -119 -88 -109 -201 -284 -237 -368 -21 -47 -63 -136 -94
-198 -50 -99 -59 -112 -88 -120 -18 -5 -37 -6 -42 -1 -13 11 20 179 56 284
109 321 290 546 426 532 24 -3 45 -7 48 -10z m-6147 -157 c169 -253 200 -381
237 -984 l6 -109 -65 6 c-156 15 -218 78 -317 327 -60 150 -91 208 -206 377
-57 84 -104 157 -104 162 0 5 21 12 47 16 26 4 64 15 84 25 36 19 37 19 57 -3
91 -99 224 -383 286 -608 12 -42 22 -58 41 -67 14 -7 27 -12 28 -12 8 0 -13
166 -28 225 -25 98 -55 175 -139 354 -41 86 -76 167 -79 181 -7 29 28 157 51
183 8 9 21 17 28 17 7 0 40 -40 73 -90z m6211 67 c0 -32 -196 -287 -220 -287
-18 0 -10 22 23 69 19 25 50 76 70 113 37 66 86 118 113 118 8 0 14 -6 14 -13z
m6727 -27 c146 -66 328 -383 387 -672 9 -42 16 -91 16 -108 0 -28 -2 -30 -27
-24 -16 4 -37 14 -47 23 -18 15 -108 194 -162 323 -25 60 -145 242 -222 338
-25 30 -52 70 -60 88 -14 29 -14 34 -2 42 24 15 72 11 117 -10z m-21547 -37
c0 -43 -59 -174 -148 -333 -45 -80 -159 -297 -253 -483 -240 -475 -375 -670
-559 -809 -124 -94 -308 -163 -418 -156 l-49 3 148 225 c196 297 291 452 434
705 297 527 407 705 474 769 100 96 7 -105 -299 -644 -159 -281 -287 -526
-278 -535 2 -2 18 4 35 15 65 39 272 374 494 799 189 362 231 415 364 457 55
17 55 17 55 -13z m11230 -99 c67 -51 140 -127 206 -214 148 -192 517 -782 851
-1360 150 -258 231 -382 312 -475 99 -114 154 -195 167 -244 11 -45 11 -46
-14 -55 -37 -13 -149 10 -210 44 -112 61 -223 151 -383 310 -136 135 -184 192
-268 313 -57 81 -127 182 -157 225 -132 190 -188 281 -364 592 -107 190 -172
298 -252 424 -70 108 -108 193 -108 240 0 19 50 201 75 274 6 17 71 -16 145
-74z m10184 36 c19 -17 53 -64 75 -104 22 -40 52 -87 66 -104 24 -29 33 -62
16 -62 -26 0 -221 260 -221 295 0 15 33 2 64 -25z m-20984 -129 c-114 -290
-322 -694 -425 -826 -137 -176 -297 -324 -402 -372 -109 -50 -163 -7 -83 65
57 50 68 72 400 812 50 113 103 220 116 238 24 31 71 62 95 62 27 0 -20 -110
-152 -346 -86 -156 -149 -284 -149 -303 0 -6 11 -6 29 0 41 14 178 225 289
444 88 172 103 191 164 209 29 9 71 27 93 40 22 14 41 26 42 26 2 0 -6 -22
-17 -49z m7598 -18 c102 -69 219 -261 292 -480 22 -67 42 -150 46 -191 6 -67
5 -72 -12 -72 -49 0 -75 40 -182 277 -51 112 -127 235 -232 373 -81 106 -86
118 -58 130 36 15 89 2 146 -37z m12742 -168 c38 -237 101 -857 99 -969 -1
-37 -7 0 -15 94 -25 290 -77 712 -129 1040 l-5 35 15 -40 c9 -22 24 -94 35
-160z m3564 148 c102 -52 144 -111 316 -443 159 -307 221 -415 354 -624 124
-195 206 -287 206 -232 0 23 -124 258 -288 547 -175 309 -262 471 -315 586
-54 120 -49 145 16 74 76 -84 186 -262 432 -701 191 -341 272 -474 483 -793
101 -154 181 -281 179 -283 -3 -3 -43 0 -89 6 -199 24 -359 108 -518 270 -158
160 -263 327 -475 755 -79 160 -179 351 -221 425 -107 187 -183 347 -190 402
l-7 46 43 -9 c23 -5 56 -17 74 -26z m-16475 -49 c17 -14 50 -58 72 -98 23 -39
54 -87 69 -107 17 -21 25 -41 21 -48 -6 -9 -26 7 -65 51 -58 64 -156 202 -156
219 0 17 28 9 59 -17z m-7290 -51 c14 -51 0 -106 -60 -236 -28 -60 -53 -124
-56 -143 l-6 -34 30 11 c44 15 69 45 103 129 17 41 42 94 56 118 l26 44 77 -7
c112 -10 123 -13 115 -39 -4 -11 -21 -50 -39 -86 -102 -203 -275 -340 -442
-348 l-73 -4 6 33 c29 155 214 599 250 599 2 0 8 -17 13 -37z m23339 -118 c43
-9 64 -38 164 -230 98 -187 243 -421 275 -442 12 -8 29 -13 37 -11 21 5 -8 75
-109 258 -113 204 -194 369 -197 400 -2 20 1 24 17 22 31 -5 67 -35 96 -78 27
-41 37 -63 239 -515 188 -418 243 -526 297 -576 56 -53 55 -77 -4 -81 -83 -6
-187 63 -359 240 -148 153 -206 233 -312 433 -118 222 -302 618 -302 649 0 2
28 -11 63 -29 34 -18 77 -36 95 -40z m-13261 4 c95 -46 133 -100 302 -427 188
-363 385 -691 467 -779 39 -42 64 -54 64 -32 0 19 -82 183 -165 329 -45 80
-99 177 -120 215 -21 39 -41 75 -45 80 -4 6 -43 73 -85 150 -107 192 -195 375
-195 404 l0 24 26 -24 c65 -59 192 -259 399 -629 195 -350 289 -505 471 -781
102 -154 188 -288 191 -296 5 -13 -3 -14 -53 -8 -166 19 -302 74 -426 173
-185 148 -333 367 -557 827 -51 105 -145 284 -209 400 -103 186 -181 354 -182
394 0 19 57 9 117 -20z m-9577 -104 c0 -28 -11 -89 -25 -136 -14 -46 -28 -108
-32 -136 -5 -45 -3 -53 10 -53 21 0 40 29 67 102 25 67 61 100 104 96 23 -2
32 -9 38 -33 19 -64 -7 -232 -70 -450 l-29 -100 -44 2 c-50 3 -155 38 -190 64
-23 17 -24 21 -22 166 2 278 56 495 136 543 30 19 33 19 45 3 6 -9 12 -40 12
-68z m22651 -120 c75 -156 179 -455 179 -514 0 -10 -16 -12 -72 -9 -144 7
-306 117 -415 281 -43 64 -92 167 -93 193 0 6 40 15 98 22 94 10 98 10 115
-11 18 -21 53 -92 92 -185 22 -52 56 -87 97 -101 30 -11 30 -11 24 21 -3 17
-31 86 -61 152 -52 117 -77 196 -70 220 2 6 6 24 10 40 6 28 6 28 27 10 12
-11 43 -64 69 -119z m-13580 61 c24 -13 63 -30 86 -37 24 -6 49 -19 57 -28 8
-9 53 -90 101 -181 101 -191 247 -420 278 -437 35 -20 48 -16 38 10 -20 52
-64 140 -126 252 -98 180 -175 336 -175 356 0 12 7 19 19 19 35 0 81 -51 120
-134 78 -164 124 -265 199 -436 120 -274 235 -503 269 -531 88 -74 49 -114
-68 -70 -93 36 -226 154 -379 336 -88 105 -103 129 -240 400 -136 266 -243
505 -227 505 2 0 24 -11 48 -24z m-8560 -93 c13 -34 6 -73 -43 -248 -43 -152
-59 -306 -39 -357 25 -66 38 -33 92 239 53 267 81 320 129 241 27 -45 25 -87
-9 -204 -38 -128 -49 -188 -65 -361 -13 -149 -23 -178 -71 -209 -52 -34 -143
15 -201 108 -70 110 -88 288 -45 443 26 97 119 291 162 340 39 44 75 47 90 8z
m479 -8 c21 -56 -19 -176 -134 -400 l-67 -130 5 85 c3 49 16 121 31 170 14 47
37 128 51 180 14 52 33 101 42 108 27 21 61 15 72 -13z m21104 -26 c56 -44 97
-160 122 -348 14 -106 19 -327 8 -368 -7 -27 -98 -69 -191 -88 -37 -8 -68 -13
-69 -12 -1 1 -18 58 -38 125 -66 226 -88 371 -70 461 6 28 10 31 43 31 53 0
76 -21 105 -98 30 -79 63 -122 77 -100 12 18 2 88 -29 188 -25 84 -34 178 -20
213 10 23 29 22 62 -4z m-13149 -37 c41 -62 108 -224 164 -394 28 -86 51 -163
51 -172 0 -40 -118 -25 -228 30 -89 45 -183 135 -246 237 -48 76 -84 162 -74
172 3 4 46 10 95 15 87 8 88 8 110 -18 12 -15 38 -66 58 -114 20 -48 45 -98
55 -111 20 -25 76 -54 86 -44 8 8 -15 72 -72 196 -47 104 -62 168 -50 215 9
36 21 33 51 -12z m3587 -59 c11 -9 18 -30 18 -50 0 -31 -36 -193 -45 -202 -2
-1 -24 37 -49 87 l-45 90 25 33 c44 60 65 70 96 42z m516 -57 c4 -69 -27 -162
-114 -336 -101 -202 -101 -202 -92 -87 5 65 20 133 46 218 22 68 45 148 52
177 15 65 33 84 74 80 30 -3 31 -5 34 -52z m-4597 -26 c25 -14 61 -73 83 -135
38 -113 68 -428 50 -537 -6 -33 -12 -39 -65 -63 -61 -27 -174 -53 -185 -42 -9
9 -83 285 -94 351 -5 34 -10 93 -10 133 0 83 15 109 59 98 39 -10 52 -24 86
-100 18 -38 42 -79 54 -89 l21 -19 0 45 c0 24 -9 78 -20 119 -37 136 -41 164
-35 207 7 44 19 51 56 32z m13124 -45 c43 -45 136 -229 170 -335 66 -208 34
-423 -82 -551 -43 -48 -81 -69 -123 -69 -77 0 -106 57 -120 238 -14 166 -24
222 -67 371 -40 140 -40 189 -1 228 54 53 78 -1 133 -292 36 -191 55 -255 75
-255 5 0 14 25 21 56 17 73 3 169 -51 364 -48 170 -55 244 -26 266 28 20 35
18 71 -21z m-8885 -17 c28 -46 25 -95 -14 -233 -19 -66 -38 -140 -43 -165 l-8
-45 -38 87 -37 87 24 115 c39 182 72 226 116 154z m8378 20 c6 -7 18 -42 27
-78 9 -36 31 -112 50 -170 33 -103 61 -260 53 -297 -5 -20 -145 250 -183 352
-27 71 -40 145 -31 180 5 20 12 25 40 25 18 0 38 -6 44 -12z m-13108 -170 c51
-54 130 -214 170 -343 26 -87 36 -211 21 -290 -33 -179 -170 -323 -260 -274
-44 24 -60 74 -77 244 -9 88 -27 200 -40 250 -13 49 -31 116 -40 149 -19 70
-12 115 21 146 24 22 26 22 44 6 24 -21 41 -85 86 -315 20 -101 41 -193 47
-204 10 -20 11 -20 24 -2 38 51 27 182 -32 387 -41 141 -53 230 -34 253 18 21
46 19 70 -7z m-474 -13 c6 -8 16 -40 23 -72 7 -32 28 -105 46 -163 19 -58 36
-126 39 -152 4 -27 9 -69 12 -95 4 -33 2 -45 -5 -38 -17 18 -159 309 -180 373
-21 61 -27 125 -15 157 8 20 62 14 80 -10z m1290 -250 c24 -10 33 -19 28 -27
-5 -7 -25 -40 -46 -72 l-38 -59 0 64 c0 61 7 109 16 109 3 0 21 -7 40 -15z
m11031 -147 c-2 -18 -4 -4 -4 32 0 36 2 50 4 33 2 -18 2 -48 0 -65z m-10652
13 c72 -4 139 -12 150 -18 11 -6 35 -27 54 -47 l34 -35 -28 -38 c-16 -21 -98
-108 -184 -194 -160 -160 -321 -288 -418 -334 -65 -31 -154 -49 -201 -40 -32
6 -34 8 -28 38 11 54 44 112 106 183 102 119 204 258 280 384 56 92 77 119 89
114 9 -3 75 -9 146 -13z m-1673 -305 c31 -56 77 -128 102 -158 l45 -55 -46
-54 c-80 -93 -255 -268 -332 -330 -92 -75 -149 -104 -253 -129 -103 -25 -130
-25 -158 -2 -22 17 -22 19 -6 49 8 17 49 59 90 92 153 125 280 293 421 559 39
72 72 131 75 131 3 0 31 -46 62 -103z m2099 28 c18 -19 55 -52 82 -72 26 -20
47 -39 47 -43 0 -3 -19 -14 -42 -22 -96 -36 -282 -65 -276 -43 6 25 134 216
144 216 5 0 26 -16 45 -36z m-1117 -104 c-121 -155 -276 -287 -370 -317 -67
-21 -148 -10 -234 31 -30 14 -46 23 -35 20 11 -4 52 -9 91 -11 84 -6 151 12
230 63 67 42 100 84 138 175 17 41 35 80 39 87 6 8 37 12 98 12 l90 0 -47 -60z"/>
<path d="M23310 17137 c-319 -74 -424 -448 -189 -672 66 -63 123 -92 206 -105
165 -27 348 72 421 227 24 52 27 70 27 163 0 95 -3 111 -28 162 -84 170 -266
264 -437 225z"/>
<path d="M17463 16154 c-19 -51 24 -186 79 -245 32 -35 107 -84 115 -76 12 13
-18 123 -52 193 -32 66 -100 144 -125 144 -6 0 -13 -7 -17 -16z"/>
<path d="M17020 16113 c-51 -10 -105 -12 -170 -8 -52 3 -110 7 -129 8 -40 2
-67 -26 -41 -43 42 -28 125 -42 280 -50 103 -4 180 -13 205 -22 87 -33 204
-30 233 5 29 34 19 41 -81 53 -84 10 -106 16 -143 43 -49 34 -48 34 -154 14z"/>
<path d="M17902 15895 c-133 -41 -186 -169 -122 -294 26 -51 58 -73 104 -69
l35 3 -30 68 c-41 98 -39 120 21 191 28 32 58 72 66 87 14 28 14 29 -8 28 -13
0 -42 -6 -66 -14z"/>
<path d="M17884 15479 c-56 -16 -127 -72 -153 -119 -47 -84 -24 -193 48 -229
22 -12 42 -25 45 -30 4 -5 -15 -50 -40 -100 -38 -75 -47 -101 -47 -144 0 -123
103 -204 247 -195 36 2 68 7 72 10 3 4 0 19 -8 35 -11 23 -18 27 -46 25 -19
-2 -54 7 -86 21 -52 24 -55 27 -61 72 -16 101 7 158 81 205 l45 28 -29 34
c-17 18 -57 46 -91 63 -61 29 -61 29 -61 72 0 77 37 123 154 191 72 41 77 46
60 59 -20 15 -83 16 -130 2z"/>
<path d="M17980 14580 c0 -25 42 -91 72 -113 18 -14 66 -36 106 -51 115 -41
128 -50 173 -126 55 -94 91 -127 150 -139 118 -26 278 53 267 132 -5 35 -47
33 -137 -7 -43 -20 -99 -39 -123 -42 -40 -6 -47 -3 -65 20 -14 18 -23 48 -27
99 -4 40 -10 78 -14 84 -4 6 -46 16 -94 22 -89 10 -123 24 -238 97 -57 36 -70
40 -70 24z"/>
<path d="M5439 16113 c-4 -118 32 -199 118 -264 48 -36 63 -36 63 -1 0 72 -65
208 -125 261 -44 38 -55 39 -56 4z"/>
<path d="M5020 16084 c-95 -16 -181 -17 -253 -3 -59 12 -87 4 -87 -26 0 -31
173 -64 338 -65 61 0 105 -5 130 -16 51 -21 170 -29 201 -12 26 14 49 44 40
52 -3 3 -45 10 -93 15 -75 7 -95 14 -132 40 -25 17 -50 30 -57 30 -7 -1 -46
-7 -87 -15z"/>
<path d="M5857 15876 c-89 -32 -147 -101 -147 -174 0 -39 35 -136 56 -153 16
-13 104 -30 104 -20 0 4 -13 38 -30 76 -16 39 -30 79 -30 91 0 11 23 47 50 78
28 32 57 71 65 87 15 28 15 29 -7 29 -13 -1 -40 -7 -61 -14z"/>
<path d="M26645 16029 c-49 -43 -114 -178 -122 -253 l-6 -58 31 16 c96 50 162
157 162 263 0 74 -10 80 -65 32z"/>
<path d="M27020 16005 c-28 -34 -88 -55 -175 -61 -80 -7 -86 -9 -83 -28 2 -12
18 -29 38 -39 42 -22 128 -18 200 9 31 11 98 19 215 24 133 7 183 13 232 30
60 21 62 22 50 47 -9 21 -16 24 -41 19 -109 -21 -256 -17 -397 11 -16 3 -30
-1 -39 -12z"/>
<path d="M26190 15795 c0 -17 36 -70 81 -122 57 -66 58 -77 14 -178 -14 -31
-25 -60 -25 -65 0 -13 66 -13 91 1 33 17 69 106 69 169 0 64 -20 104 -74 145
-44 34 -156 69 -156 50z"/>
<path d="M26167 15374 c-30 -9 -14 -27 74 -81 94 -57 126 -96 135 -164 l6 -46
-72 -39 c-40 -22 -82 -52 -94 -68 -21 -28 -21 -28 -1 -40 11 -6 39 -30 62 -52
l43 -41 0 -81 c0 -77 -1 -82 -27 -100 -44 -29 -88 -44 -124 -40 -29 3 -35 -1
-43 -25 -13 -37 2 -47 75 -47 75 0 139 24 183 67 72 72 72 142 1 283 l-45 90
38 19 c45 23 66 46 81 90 32 98 -15 193 -123 248 -47 24 -132 37 -169 27z"/>
<path d="M26164 14470 c-12 -5 -51 -29 -88 -54 -72 -49 -106 -61 -209 -72 -77
-7 -87 -17 -87 -86 0 -62 -18 -116 -42 -129 -30 -16 -89 -4 -176 36 -41 19
-85 35 -97 35 -65 0 -46 -81 28 -124 61 -36 149 -52 203 -37 59 16 88 43 134
121 50 86 67 99 184 144 100 39 158 87 172 141 8 32 5 35 -22 25z"/>
<path d="M13057 15693 c-56 -29 -147 -208 -147 -289 l0 -24 38 19 c47 25 94
74 122 130 24 48 37 140 24 164 -8 14 -12 14 -37 0z"/>
<path d="M13381 15646 c-30 -32 -65 -43 -163 -52 -86 -7 -96 -18 -52 -53 35
-27 119 -28 205 -2 45 13 108 21 209 24 109 4 162 11 213 27 67 21 68 22 54
43 -10 15 -23 21 -43 20 -199 -16 -234 -15 -369 12 -24 5 -35 1 -54 -19z"/>
<path d="M12600 15456 c0 -17 34 -70 75 -116 53 -59 55 -77 20 -162 -38 -93
-35 -98 37 -78 80 23 117 188 60 268 -12 17 -46 42 -75 56 -54 27 -117 44
-117 32z"/>
<path d="M12582 15053 c-36 -7 -22 -23 69 -77 69 -42 88 -59 107 -96 12 -24
22 -59 22 -77 0 -29 -5 -35 -69 -68 -39 -21 -78 -49 -87 -63 -16 -25 -16 -27
1 -37 82 -47 112 -107 101 -198 -7 -54 -9 -57 -52 -78 -25 -12 -63 -21 -85
-21 -34 1 -41 -3 -49 -24 -6 -14 -10 -27 -10 -29 0 -2 18 -9 41 -15 80 -22
199 25 246 97 12 17 18 46 18 84 0 48 -7 70 -43 138 -23 45 -42 85 -42 90 0 5
18 20 41 33 98 55 102 179 9 270 -64 62 -139 86 -218 71z"/>
<path d="M12571 14189 c-13 -5 -45 -25 -71 -44 -66 -49 -105 -63 -194 -71 -42
-4 -79 -11 -82 -16 -4 -6 -10 -44 -15 -85 -11 -98 -27 -117 -89 -110 -25 3
-83 22 -128 42 -66 29 -86 34 -102 25 -30 -16 -24 -48 18 -90 43 -44 92 -60
178 -60 80 0 116 24 171 115 23 38 51 77 62 86 11 9 62 33 114 53 100 39 136
67 162 129 16 39 14 41 -24 26z"/>
<path d="M4715 15531 c-252 -90 -709 -433 -919 -690 -93 -114 -150 -221 -116
-221 20 0 94 77 165 170 192 253 616 567 891 660 86 29 134 60 134 87 0 19
-94 16 -155 -6z"/>
<path d="M27316 15442 c-18 -8 -17 -10 10 -40 21 -24 55 -41 126 -66 116 -40
212 -91 378 -202 239 -158 429 -325 540 -474 76 -103 136 -167 173 -186 34
-18 35 -7 6 56 -91 200 -525 593 -881 797 -153 88 -301 136 -352 115z"/>
<path d="M13660 15111 c0 -29 46 -61 123 -87 136 -45 268 -117 457 -252 215
-154 338 -267 454 -420 91 -120 176 -199 176 -162 0 50 -93 182 -220 314 -252
262 -647 541 -849 600 -59 17 -141 21 -141 7z"/>
<path d="M3352 13520 c-115 -77 -268 -262 -432 -525 -47 -74 -139 -220 -204
-323 -66 -103 -157 -256 -203 -340 -46 -85 -105 -186 -132 -226 -41 -60 -81
-136 -81 -152 0 -2 7 -4 15 -4 22 0 138 113 199 194 68 91 161 242 280 453 97
174 467 723 543 805 42 46 103 134 103 150 0 17 -30 6 -88 -32z"/>
<path d="M28810 13350 c0 -24 42 -90 89 -142 76 -83 488 -686 566 -828 215
-393 370 -616 484 -694 23 -16 44 -27 47 -24 12 12 -12 65 -69 151 -33 51 -98
162 -145 247 -46 85 -120 211 -164 280 -45 69 -128 202 -186 295 -197 319
-313 476 -445 602 -73 69 -177 135 -177 113z"/>
<path d="M15097 13113 c11 -31 36 -66 88 -128 28 -33 78 -98 110 -145 96 -138
207 -298 280 -405 38 -55 125 -199 193 -320 68 -121 156 -266 194 -323 109
-159 268 -318 268 -267 0 22 -35 88 -91 172 -27 39 -74 120 -105 180 -31 59
-100 177 -153 261 -53 85 -120 193 -149 240 -203 330 -338 517 -449 623 -101
97 -203 159 -186 112z"/>
<path d="M8023 16345 c-124 -54 -218 -255 -166 -355 25 -49 100 -92 168 -98
133 -11 245 113 245 271 0 39 -6 79 -14 95 -43 83 -151 123 -233 87z"/>
<path d="M9293 16170 c-124 -63 -195 -230 -145 -343 28 -64 82 -98 165 -104
78 -7 123 7 167 50 96 93 106 273 21 369 -36 40 -41 42 -102 45 -51 3 -73 0
-106 -17z"/>
<path d="M7044 15629 c-21 -24 -12 -47 27 -65 25 -12 471 -71 612 -81 91 -6
112 4 105 49 -5 35 -38 45 -218 68 -91 11 -216 27 -278 35 -162 21 -224 20
-248 -6z"/>
<path d="M8308 15290 c-142 -140 -213 -194 -287 -217 -57 -17 -101 -10 -141
24 -44 36 -60 74 -60 138 0 60 -22 95 -59 95 -78 0 -62 -187 25 -289 122 -143
307 -100 544 126 48 46 90 83 93 83 2 0 15 -26 28 -57 103 -259 375 -365 621
-242 105 53 156 115 137 167 -12 33 -38 27 -106 -22 -95 -70 -140 -89 -218
-94 -93 -5 -165 21 -241 90 -60 56 -92 110 -118 203 -10 33 -19 68 -22 77 -7
24 -32 48 -50 48 -8 0 -74 -59 -146 -130z"/>
<path d="M7360 15384 c-191 -21 -309 -40 -325 -54 -17 -14 -19 -48 -6 -69 12
-19 43 -18 241 2 306 32 352 41 372 71 9 13 -1 48 -16 58 -16 11 -121 7 -266
-8z"/>
<path d="M10055 15321 c-231 -7 -255 -14 -255 -79 0 -42 28 -44 299 -31 149 7
345 9 470 6 172 -5 220 -4 247 8 39 16 44 41 15 76 l-19 24 -279 1 c-153 0
-368 -2 -478 -5z"/>
<path d="M7480 15166 c-101 -38 -557 -240 -572 -253 -19 -17 -22 -40 -12 -67
11 -28 61 -18 187 38 67 29 201 86 297 126 96 41 181 78 188 83 19 15 15 65
-7 77 -24 13 -37 12 -81 -4z"/>
<path d="M9707 15042 c-20 -22 -17 -51 7 -71 8 -6 85 -29 172 -51 155 -39 545
-167 755 -248 132 -52 179 -60 202 -37 44 43 8 82 -112 124 -47 16 -175 61
-284 100 -278 100 -580 191 -657 198 -57 5 -67 3 -83 -15z"/>
<path d="M9562 14794 c-26 -18 -29 -55 -4 -76 24 -22 91 -55 191 -93 47 -19
145 -59 216 -90 510 -223 738 -315 779 -315 31 0 48 22 44 57 -4 35 -11 38
-348 179 -140 58 -304 127 -365 154 -247 108 -473 200 -489 200 -1 0 -12 -7
-24 -16z"/>
<path d="M19916 12538 c-20 -28 -20 -86 -1 -269 39 -369 110 -628 250 -914
121 -247 276 -460 462 -635 48 -45 169 -143 268 -218 99 -74 206 -159 237
-189 l57 -53 70 0 c57 0 71 3 71 15 0 22 -77 94 -194 181 -55 41 -117 88 -136
103 l-35 29 23 25 c13 14 51 40 85 58 163 87 235 234 193 396 -27 109 -86 212
-241 428 -108 148 -122 184 -145 355 -12 88 -36 141 -86 193 -59 60 -126 49
-199 -35 -78 -90 -192 -383 -244 -623 -12 -55 -24 -101 -26 -103 -2 -2 -31 52
-64 119 -134 275 -216 601 -242 955 -7 102 -16 167 -25 182 -19 29 -58 29 -78
0z"/>
<path d="M6883 12409 c-33 -12 -37 -48 -24 -203 32 -379 107 -664 247 -946
169 -339 350 -548 705 -815 101 -76 200 -155 220 -176 36 -38 38 -39 108 -39
54 0 71 3 71 14 0 17 -89 100 -177 163 -156 114 -354 268 -422 330 -272 246
-491 644 -585 1063 -35 157 -56 303 -63 440 -3 63 -10 125 -14 137 -11 29 -39
43 -66 32z"/>
<path d="M23223 11403 c-38 -49 -85 -108 -103 -133 -121 -159 -455 -525 -684
-751 l-261 -258 70 0 c81 -1 82 0 248 153 223 204 876 969 877 1027 0 32 -17
49 -51 49 -22 0 -40 -16 -96 -87z"/>
<path d="M10059 11363 c-19 -21 -66 -78 -104 -128 -154 -200 -392 -464 -654
-727 l-276 -278 66 0 c53 0 72 4 95 22 80 61 248 227 401 395 201 221 573 677
573 702 0 21 -30 51 -52 51 -9 0 -31 -17 -49 -37z"/>
<path d="M22025 10083 c-315 -23 -515 -115 -592 -272 l-28 -56 -3 -440 -3
-441 -87 30 c-84 30 -93 31 -262 30 -185 0 -276 -11 -430 -51 -86 -22 -253
-94 -321 -139 -27 -17 -27 -17 -80 30 -30 26 -88 64 -130 85 -97 49 -164 58
-489 66 -135 4 -285 10 -335 13 -195 15 -369 -20 -501 -99 -80 -48 -194 -157
-250 -240 -46 -66 -49 -69 -58 -47 -63 159 -166 254 -359 332 -212 85 -323 94
-492 38 -114 -37 -156 -59 -241 -123 l-68 -52 -15 24 c-8 13 -49 58 -90 99
-133 132 -272 183 -496 184 -115 1 -141 -2 -225 -28 -52 -15 -117 -40 -143
-54 -93 -50 -182 -167 -244 -321 -9 -23 -11 -21 -55 41 -72 100 -168 171 -295
217 l-72 27 -158 -13 c-87 -7 -264 -17 -393 -23 -366 -15 -533 -65 -756 -226
-21 -14 -23 -13 -45 33 -31 65 -139 171 -221 217 -80 45 -192 86 -313 115
l-90 22 -90 -48 c-61 -33 -111 -69 -156 -114 l-67 -66 -78 38 c-106 52 -201
69 -376 69 -235 0 -347 -40 -477 -168 -73 -72 -75 -72 -94 -54 -18 19 -18 20
16 88 62 124 118 325 182 650 l37 184 -49 81 c-91 155 -222 261 -388 316 -70
23 -101 27 -246 31 -181 5 -232 -4 -333 -55 -69 -35 -157 -128 -195 -205 -50
-104 -63 -167 -70 -356 l-6 -172 -75 66 c-264 233 -610 373 -1023 415 -182 18
-777 6 -989 -20 -151 -18 -520 -74 -576 -86 l-22 -5 0 -246 0 -246 69 -67
c119 -113 121 -125 121 -1023 l0 -708 -210 0 c-115 0 -210 -2 -210 -5 0 -13
349 -497 412 -571 197 -235 488 -398 837 -469 170 -35 294 -45 567 -45 l244 0
98 49 c243 123 446 266 620 438 89 88 114 108 119 95 80 -230 227 -409 407
-497 134 -66 196 -80 361 -80 128 0 147 3 220 28 141 50 253 140 328 264 18
29 34 52 37 52 3 0 25 -24 49 -54 122 -149 303 -252 505 -286 84 -14 252 -6
319 15 138 44 268 136 359 255 29 38 55 70 58 70 3 0 23 -24 46 -52 78 -101
217 -192 379 -250 109 -39 300 -78 407 -84 l96 -6 84 48 c80 46 228 144 277
183 23 19 23 19 88 -24 87 -57 212 -109 353 -145 98 -26 126 -30 190 -24 150
13 298 59 405 127 l41 26 29 -25 c97 -79 244 -123 416 -123 185 0 311 31 464
114 l81 45 17 59 16 59 84 -82 c147 -145 307 -203 531 -192 141 7 211 24 321
77 133 65 241 168 326 313 22 37 42 67 44 67 2 0 -9 -31 -25 -70 -51 -119 -63
-188 -64 -365 0 -190 17 -281 74 -400 113 -235 355 -393 682 -445 109 -18 448
-8 548 15 41 9 117 37 169 61 79 37 106 57 175 126 93 94 141 179 177 314 18
65 23 116 26 285 l5 206 77 -44 c184 -105 323 -138 571 -137 160 0 183 3 263
27 110 34 210 84 279 140 l54 44 59 -55 c33 -30 96 -79 140 -108 l80 -54 151
0 c129 0 166 4 250 25 200 51 327 134 382 253 24 50 27 72 30 184 l4 126 -40
54 c-73 96 -107 218 -121 423 -5 86 -1 238 15 540 59 1080 67 1279 68 1545 l1
285 -32 68 c-46 96 -119 165 -236 221 -121 59 -266 95 -352 89z m167 -327 c38
-14 85 -37 105 -51 60 -46 66 -75 59 -270 -12 -303 -46 -999 -71 -1460 -14
-247 -25 -492 -25 -543 0 -249 54 -494 141 -634 25 -42 30 -59 26 -91 -3 -21
-13 -47 -22 -57 -44 -48 -196 -90 -329 -90 -83 0 -85 1 -133 38 -126 100 -211
229 -255 388 -26 93 -27 223 -8 1024 6 267 11 750 12 1073 l0 588 25 30 c28
33 116 63 228 78 92 12 164 6 247 -23z m-10181 10 c37 -8 89 -26 116 -39 56
-29 143 -117 143 -145 0 -31 -48 -257 -84 -397 -37 -143 -65 -223 -96 -272
l-20 -33 -108 0 c-69 0 -127 6 -161 16 -71 21 -140 89 -172 169 -23 57 -24 71
-24 300 0 238 0 240 26 296 28 59 63 91 119 107 52 15 186 14 261 -2z m-1753
-311 c357 -51 615 -176 833 -402 101 -105 180 -221 251 -369 l53 -109 -1 -335
c0 -296 -3 -349 -21 -455 -90 -507 -394 -899 -909 -1172 l-106 -56 -246 6
c-326 7 -486 33 -681 112 -166 68 -325 181 -430 308 l-59 71 29 14 c16 8 50
42 75 75 l45 60 -4 846 c-3 740 -6 854 -20 911 -37 150 -79 240 -136 294 -28
27 -31 36 -31 87 0 58 0 58 33 64 141 24 462 60 617 69 155 9 598 -3 708 -19z
m6617 -724 c74 -32 118 -66 154 -116 l32 -45 -25 -88 c-82 -287 -146 -590
-165 -786 -16 -156 -15 -159 18 -101 15 28 71 127 124 220 227 404 426 679
555 769 51 35 177 76 234 76 60 0 224 -58 293 -104 32 -21 59 -48 69 -70 17
-36 17 -38 -13 -129 -74 -224 -92 -357 -98 -731 -5 -300 2 -427 28 -467 11
-19 14 -16 168 129 l130 123 16 -38 c9 -21 24 -66 33 -100 14 -53 15 -71 3
-140 -62 -381 -278 -590 -585 -570 -64 4 -93 12 -152 41 -85 43 -130 90 -180
191 -72 147 -94 310 -94 698 0 136 -3 247 -7 247 -14 0 -61 -85 -96 -175 -49
-125 -145 -427 -225 -705 l-68 -235 -39 -18 c-117 -56 -338 -62 -438 -13 -143
70 -216 235 -237 536 -6 80 -18 226 -26 325 -26 291 -5 745 45 971 44 200 92
273 207 311 94 31 263 28 339 -6z m-2972 -44 c66 -30 126 -82 143 -124 12 -27
12 -60 -1 -210 -100 -1157 -329 -1752 -691 -1789 -146 -15 -297 41 -418 157
-161 154 -280 420 -356 799 -24 118 -33 205 -49 468 -14 233 -16 333 -9 360
18 64 77 171 116 210 71 71 94 77 297 77 168 0 183 -2 222 -23 23 -12 47 -30
52 -41 12 -21 4 -107 -34 -361 -14 -91 -25 -186 -25 -212 0 -156 76 -513 158
-746 22 -63 43 -116 45 -119 13 -12 51 28 77 82 79 167 144 634 186 1333 7
122 17 146 77 182 28 17 31 17 93 0 35 -10 88 -30 117 -43z m5567 -57 c96 -5
229 -10 295 -10 66 0 137 -5 157 -10 54 -15 115 -67 154 -131 l35 -55 -30
-210 c-60 -421 -66 -600 -38 -1084 43 -734 46 -1027 12 -1125 -39 -115 -115
-195 -222 -235 -133 -50 -469 -53 -626 -6 -207 62 -319 158 -368 317 -25 81
-27 318 -3 400 32 108 102 220 213 341 l52 56 -58 7 c-216 24 -348 112 -431
285 -50 107 -69 182 -84 339 -13 142 -3 257 38 454 100 475 311 700 639 681
50 -3 169 -9 265 -14z m-3773 -26 c22 -13 60 -45 83 -71 38 -44 41 -52 36 -88
-3 -22 -19 -132 -35 -245 -46 -313 -55 -411 -55 -585 0 -249 38 -461 94 -517
31 -30 61 -35 100 -15 25 13 25 13 30 194 4 160 7 183 24 202 63 70 140 -26
199 -249 28 -106 31 -128 31 -280 l1 -165 -30 -54 c-54 -98 -173 -158 -330
-168 -67 -4 -95 0 -170 22 -241 71 -381 200 -401 369 -6 46 -10 56 -25 56 -15
0 -19 -8 -19 -32 -1 -113 -144 -271 -367 -404 l-91 -55 -94 16 c-282 48 -458
142 -519 277 -24 52 -24 58 -24 348 1 399 25 591 101 820 88 263 227 436 431
536 120 59 227 80 453 89 96 4 247 12 335 19 178 14 183 14 242 -20z m5558 2
c154 -76 257 -269 301 -568 20 -135 15 -368 -11 -463 -48 -183 -158 -305 -339
-376 -83 -33 -192 -38 -291 -14 -93 22 -89 25 -82 -57 8 -99 46 -172 108 -210
47 -30 128 -46 172 -34 47 11 143 95 237 205 52 61 97 111 101 111 28 0 71
-80 100 -185 l20 -76 -40 -83 c-101 -209 -291 -308 -561 -293 -316 18 -520
155 -664 443 -95 190 -121 370 -113 787 4 235 7 283 25 350 49 182 157 318
312 394 155 77 290 102 520 100 139 -2 148 -3 205 -31z m-9268 -1 c64 -19 135
-68 186 -127 l38 -46 -30 -138 c-43 -193 -76 -387 -106 -609 -23 -169 -25
-200 -15 -280 23 -179 61 -304 100 -325 14 -8 23 -2 43 28 40 61 85 156 98
206 l12 47 46 -3 46 -3 13 -90 c16 -108 10 -326 -11 -402 -23 -79 -61 -156
-100 -200 -104 -114 -319 -135 -488 -47 -176 93 -284 303 -331 644 -17 126
-17 724 0 875 37 314 87 422 217 460 33 9 65 19 70 20 30 10 168 3 212 -10z"/>
<path d="M9855 9071 l-30 -18 13 -129 c9 -90 15 -364 18 -901 5 -679 4 -781
-10 -849 -24 -114 -23 -119 27 -138 23 -9 49 -16 57 -16 8 0 54 29 101 65 401
300 605 681 635 1188 16 267 -78 546 -232 686 -106 97 -212 131 -414 131 -114
0 -140 -3 -165 -19z m345 -301 c73 -37 129 -140 162 -298 22 -107 20 -199 -8
-367 -24 -147 -99 -341 -173 -450 l-21 -30 0 500 c0 275 -3 537 -7 583 -3 45
-3 82 1 82 4 0 24 -9 46 -20z"/>
<path d="M19338 8259 c-172 -180 -268 -432 -285 -744 -8 -163 22 -275 76 -275
41 0 203 242 268 398 65 157 84 256 90 452 6 198 6 197 -67 207 -38 5 -43 3
-82 -38z"/>
<path d="M19454 6837 c-129 -96 -216 -219 -244 -347 -7 -34 -11 -103 -8 -175
3 -99 8 -127 26 -162 36 -69 127 -123 207 -123 32 0 32 0 64 103 35 113 67
271 77 375 9 90 -34 372 -56 372 -4 0 -34 -19 -66 -43z"/>
<path d="M14955 8123 c-69 -87 -141 -240 -175 -377 -55 -218 -76 -511 -47
-666 l12 -65 46 -3 c65 -4 98 27 154 142 68 141 134 385 199 740 34 181 33
205 -1 238 -39 36 -66 48 -107 48 -30 0 -40 -7 -81 -57z"/>
<path d="M20899 8177 c-46 -30 -96 -131 -114 -230 -10 -52 -15 -143 -15 -266
0 -169 2 -190 18 -204 40 -36 69 -11 121 105 71 158 102 435 64 560 -10 32
-23 58 -29 58 -6 0 -26 -10 -45 -23z"/>
<path d="M21098 5845 c-28 -19 -50 -25 -90 -25 -158 0 -320 -89 -422 -234 -76
-106 -151 -282 -181 -423 -6 -30 -9 -32 -78 -43 -114 -19 -301 -67 -367 -94
-33 -14 -96 -50 -140 -81 l-80 -56 0 -112 c0 -62 5 -132 11 -156 5 -24 8 -45
6 -47 -2 -2 -111 -8 -243 -13 -136 -6 -275 -17 -323 -26 -222 -43 -442 -160
-579 -309 -24 -25 -44 -46 -47 -46 -2 0 -21 26 -42 57 -83 125 -223 236 -374
296 -119 48 -173 57 -329 57 -153 0 -227 -12 -315 -50 -28 -12 -81 -31 -118
-41 -172 -49 -329 -161 -437 -312 -33 -47 -35 -48 -44 -25 -63 159 -126 251
-216 319 -74 56 -118 77 -207 100 -67 17 -112 19 -383 19 l-307 0 -79 -56
c-101 -72 -170 -130 -267 -224 -69 -66 -80 -73 -88 -57 -6 10 -32 46 -58 80
-87 114 -211 197 -351 234 -85 23 -352 23 -490 0 -172 -29 -356 -94 -462 -163
l-27 -18 -56 55 c-165 160 -347 224 -628 217 l-153 -3 -77 -38 c-51 -25 -102
-62 -154 -111 l-79 -74 -36 27 c-54 40 -183 97 -272 120 -65 17 -111 21 -251
21 l-172 0 -161 -122 -162 -123 0 -75 c1 -332 28 -1016 50 -1275 5 -60 14
-179 20 -262 13 -187 43 -312 106 -442 61 -126 179 -247 294 -303 122 -60 184
-72 355 -73 144 0 152 1 206 28 70 34 132 100 167 175 24 54 26 70 34 277 9
247 33 421 58 418 8 -1 56 -17 105 -37 117 -45 222 -66 366 -73 l116 -6 33
-81 c188 -463 539 -706 1019 -706 251 0 418 57 589 201 l66 55 50 -34 c83 -57
263 -139 409 -187 75 -25 146 -45 158 -45 35 0 331 77 461 120 157 53 365 154
453 220 l69 52 20 -28 c45 -64 155 -169 226 -215 240 -158 535 -179 899 -64
96 31 207 79 268 118 l43 27 52 -41 c146 -112 423 -203 659 -216 l105 -6 100
57 c81 47 163 101 269 180 8 6 38 -7 89 -38 99 -60 218 -108 353 -142 89 -22
120 -25 183 -20 148 12 309 64 405 129 l38 26 43 -30 c68 -46 161 -87 241
-105 58 -13 113 -15 261 -12 170 4 193 6 260 30 135 48 255 141 332 254 18 27
34 51 36 52 1 2 29 -22 60 -53 122 -120 274 -205 452 -252 88 -24 115 -27 287
-27 212 -1 270 9 402 69 213 98 361 271 443 519 21 63 21 74 10 125 -19 87
-60 211 -86 264 l-24 47 26 52 c53 105 76 225 81 430 6 203 -2 285 -43 457
-51 219 -135 381 -259 507 -65 66 -96 89 -165 121 -100 48 -148 61 -261 69
-95 7 -317 -10 -421 -31 -38 -8 -72 -15 -76 -15 -4 0 -13 28 -19 61 -16 86
-79 210 -150 299 -103 128 -113 134 -234 155 -59 9 -111 20 -117 24 -7 4 2 47
25 121 30 95 36 131 37 210 1 85 -2 101 -27 151 -50 103 -148 176 -302 228
-74 25 -289 71 -329 71 -6 0 -28 -11 -48 -25z m190 -300 c96 -20 175 -51 202
-80 30 -32 26 -58 -56 -307 -63 -190 -65 -200 -50 -223 19 -29 72 -64 133 -88
43 -17 209 -60 275 -71 29 -5 44 -17 72 -54 92 -127 112 -224 67 -328 -31 -71
-48 -78 -141 -59 -135 29 -314 55 -371 55 -55 0 -56 -1 -72 -37 -57 -130 -72
-319 -72 -953 l0 -535 29 -62 c31 -69 47 -76 88 -43 49 38 127 221 171 400 10
42 18 56 33 58 16 2 28 -10 53 -57 83 -156 80 -390 -7 -614 -56 -144 -141
-244 -250 -295 -55 -26 -64 -27 -227 -27 -163 0 -172 1 -227 27 -166 78 -262
257 -304 567 -21 161 -16 815 11 1384 l6 117 -156 0 -156 0 -62 42 c-134 90
-231 221 -244 328 -5 41 -3 49 15 59 38 20 217 61 408 93 l191 32 12 80 c47
314 154 519 292 560 29 9 78 16 108 17 31 0 72 6 91 13 47 18 58 18 138 1z
m-7816 -1179 c103 -22 175 -61 251 -137 l67 -67 -21 -49 c-83 -194 -154 -460
-170 -643 -13 -153 -1 -218 58 -307 70 -103 69 -101 57 -120 -9 -15 -29 -18
-130 -21 -350 -8 -549 131 -586 412 -9 67 -15 86 -27 84 -26 -5 -121 -260
-177 -477 -51 -197 -73 -351 -86 -586 -8 -169 -14 -212 -26 -222 -19 -16 -109
-17 -182 -3 -185 35 -311 174 -345 382 -33 202 -85 1112 -85 1505 l0 101 64
51 64 51 94 0 c197 0 361 -77 419 -196 31 -65 35 -181 11 -319 -11 -60 -18
-113 -15 -117 14 -23 35 3 78 95 145 310 289 522 394 577 45 24 193 27 293 6z
m2932 -71 c108 -28 181 -101 221 -220 9 -27 21 -108 26 -180 14 -217 29 -278
89 -367 41 -59 39 -89 -7 -127 -28 -23 -48 -31 -78 -31 -53 0 -207 25 -275 46
-166 49 -280 162 -280 278 0 19 -5 26 -18 26 -14 0 -32 -28 -70 -107 -28 -60
-54 -126 -57 -148 l-7 -40 74 -24 c135 -43 352 -132 468 -193 193 -100 307
-194 366 -300 25 -45 29 -64 29 -128 0 -64 -4 -83 -30 -129 -88 -158 -353
-300 -755 -401 l-122 -31 -97 32 c-315 104 -476 235 -489 396 -4 46 -1 58 18
78 13 14 42 32 64 40 l41 16 177 -61 c188 -64 215 -68 319 -46 85 18 157 55
214 109 41 39 45 48 45 89 0 39 -5 50 -31 73 -61 50 -214 116 -469 200 -80 26
-165 61 -189 78 -67 46 -153 136 -186 197 -27 49 -30 64 -29 140 1 232 159
473 458 699 l67 51 227 0 c171 0 242 -4 286 -15z m-1469 -29 c154 -76 257
-269 301 -568 20 -135 15 -368 -11 -463 -48 -183 -158 -305 -339 -376 -83 -33
-192 -38 -291 -14 -93 22 -89 25 -82 -57 8 -99 46 -172 108 -210 47 -30 128
-46 172 -34 47 11 143 95 237 205 52 61 97 111 101 111 28 0 71 -80 100 -185
l20 -76 -40 -83 c-101 -209 -291 -308 -561 -293 -316 18 -520 155 -664 443
-95 190 -121 370 -113 787 4 235 7 283 25 350 49 182 157 318 312 394 155 77
290 102 520 100 139 -2 148 -3 205 -31z m3036 18 c207 -61 354 -224 394 -437
19 -102 20 -326 1 -371 -46 -111 -211 -195 -382 -196 -47 0 -69 5 -95 23 -41
27 -76 87 -85 145 -5 35 -4 42 10 42 15 0 15 3 1 30 -10 19 -15 57 -15 110 l0
80 -43 0 c-78 0 -117 -68 -152 -261 -25 -141 -32 -487 -11 -606 29 -168 77
-259 162 -309 38 -23 63 -29 128 -32 72 -4 84 -2 109 18 53 42 101 172 126
345 20 131 20 131 47 143 40 19 86 14 142 -14 112 -56 156 -150 134 -290 -38
-246 -250 -400 -645 -470 -281 -49 -523 73 -658 332 -120 230 -165 492 -140
812 31 391 128 630 307 758 61 44 177 93 218 94 10 0 33 9 51 20 79 49 285 67
396 34z m2096 -20 c22 -13 60 -45 83 -71 38 -44 41 -52 36 -88 -3 -22 -19
-132 -35 -245 -46 -313 -55 -411 -55 -585 0 -249 38 -461 94 -517 31 -30 61
-35 100 -15 25 13 25 13 30 194 4 160 7 183 24 202 63 70 140 -26 199 -249 28
-106 31 -128 31 -280 l1 -165 -30 -54 c-54 -98 -173 -158 -330 -168 -67 -4
-95 0 -170 22 -241 71 -381 200 -401 369 -6 46 -10 56 -25 56 -15 0 -19 -8
-19 -32 -1 -113 -144 -271 -367 -404 l-91 -55 -94 16 c-282 48 -458 142 -519
277 -24 52 -24 58 -24 348 1 399 25 591 101 820 88 263 227 436 431 536 120
59 227 80 453 89 96 4 247 12 335 19 178 14 183 14 242 -20z m2818 2 c154 -76
257 -269 301 -568 20 -135 15 -368 -11 -463 -48 -183 -158 -305 -339 -376 -83
-33 -192 -38 -291 -14 -93 22 -89 25 -82 -57 8 -99 46 -172 108 -210 47 -30
128 -46 172 -34 47 11 143 95 237 205 52 61 97 111 101 111 28 0 71 -80 100
-185 l20 -76 -40 -83 c-101 -209 -291 -308 -561 -293 -316 18 -520 155 -664
443 -95 190 -121 370 -113 787 4 235 7 283 25 350 49 182 157 318 312 394 155
77 290 102 520 100 139 -2 148 -3 205 -31z m-1264 -218 c-39 -98 -49 -103 -35
-15 5 27 12 37 25 37 15 0 17 -4 10 -22z"/>
<path d="M14579 3837 c-46 -30 -96 -131 -114 -230 -10 -52 -15 -143 -15 -266
0 -169 2 -190 18 -204 40 -36 69 -11 121 105 71 158 102 435 64 560 -10 32
-23 58 -29 58 -6 0 -26 -10 -45 -23z"/>
<path d="M19325 3783 c-69 -87 -141 -240 -175 -377 -55 -218 -76 -511 -47
-666 l12 -65 46 -3 c65 -4 98 27 154 142 68 141 134 385 199 740 34 181 33
205 -1 238 -39 36 -66 48 -107 48 -30 0 -40 -7 -81 -57z"/>
<path d="M22529 3837 c-46 -30 -96 -131 -114 -230 -10 -52 -15 -143 -15 -266
0 -169 2 -190 18 -204 40 -36 69 -11 121 105 71 158 102 435 64 560 -10 32
-23 58 -29 58 -6 0 -26 -10 -45 -23z"/>
<path d="M10404 5726 c-100 -16 -213 -50 -278 -83 -66 -33 -142 -107 -174
-168 l-27 -50 -3 -517 c-1 -285 -5 -518 -9 -518 -3 0 -32 25 -64 55 -72 66
-207 136 -278 143 -27 2 -109 -1 -183 -7 -73 -7 -234 -16 -358 -21 -313 -12
-431 -38 -617 -134 -340 -175 -561 -543 -637 -1057 -41 -280 -48 -825 -11
-939 41 -129 124 -243 235 -325 65 -48 188 -108 285 -140 120 -39 312 -75 400
-75 71 0 84 3 144 37 92 51 165 98 245 156 56 42 71 48 85 39 98 -70 260 -140
410 -178 109 -28 144 -29 266 -9 132 21 275 76 345 133 l25 20 45 -37 c25 -21
73 -56 107 -79 l62 -42 159 0 c139 0 173 3 257 25 193 50 319 135 373 252 23
51 27 74 30 183 l4 125 -37 48 c-75 98 -107 204 -125 418 -9 98 -6 200 15 576
55 997 67 1279 69 1533 1 256 0 267 -22 323 -29 71 -117 168 -196 216 -31 19
-103 50 -159 69 -85 29 -119 36 -202 38 -55 2 -136 -3 -181 -10z m308 -310
c38 -14 85 -37 105 -51 60 -46 66 -75 59 -270 -12 -303 -46 -999 -71 -1460
-14 -247 -25 -492 -25 -543 0 -249 54 -494 141 -634 25 -42 30 -59 26 -91 -3
-21 -13 -47 -22 -57 -44 -48 -196 -90 -329 -90 -83 0 -85 1 -133 38 -126 100
-211 229 -255 388 -26 93 -27 223 -8 1024 6 267 11 750 12 1073 l0 588 25 30
c28 33 116 63 228 78 92 12 164 6 247 -23z m-1105 -1152 c22 -13 60 -45 83
-71 38 -44 41 -52 36 -88 -3 -22 -19 -132 -35 -245 -46 -313 -55 -411 -55
-585 0 -249 38 -461 94 -517 31 -30 61 -35 100 -15 25 13 25 13 30 194 4 160
7 183 24 202 63 70 140 -26 199 -249 28 -106 31 -128 31 -280 l1 -165 -30 -54
c-54 -98 -173 -158 -330 -168 -67 -4 -95 0 -170 22 -241 71 -381 200 -401 369
-6 46 -10 56 -25 56 -15 0 -19 -8 -19 -32 -1 -113 -144 -271 -367 -404 l-91
-55 -94 16 c-282 48 -458 142 -519 277 -24 52 -24 58 -24 348 1 399 25 591
101 820 88 263 227 436 431 536 120 59 227 80 453 89 96 4 247 12 335 19 178
14 183 14 242 -20z"/>
<path d="M8865 3783 c-69 -87 -141 -240 -175 -377 -55 -218 -76 -511 -47 -666
l12 -65 46 -3 c65 -4 98 27 154 142 68 141 134 385 199 740 34 181 33 205 -1
238 -39 36 -66 48 -107 48 -30 0 -40 -7 -81 -57z"/>
<path d="M15968 1463 c-45 -52 -63 -129 -74 -315 l-7 -118 -26 8 c-14 4 -58 7
-96 7 -100 0 -152 -32 -195 -118 -37 -75 -50 -149 -50 -282 0 -170 37 -258
129 -309 62 -33 127 -42 187 -26 55 16 114 68 114 101 l0 23 16 -24 c28 -41
87 -101 116 -116 32 -17 81 -18 110 -3 27 15 48 69 48 128 0 62 -7 81 -31 81
-13 0 -19 -7 -19 -23 0 -13 -6 -31 -13 -41 -12 -16 -14 -16 -29 1 -67 74 -65
486 3 839 19 99 19 108 4 131 -19 28 -108 73 -146 73 -14 0 -33 -8 -41 -17z
m-80 -618 c17 -48 11 -162 -13 -280 -25 -124 -56 -164 -100 -131 -18 13 -20
26 -20 143 0 140 20 242 57 289 30 37 60 29 76 -21z"/>
<path d="M11656 1335 c-21 -7 -42 -17 -46 -22 -4 -4 -3 -44 1 -88 4 -44 8
-134 8 -199 l1 -119 -35 -43 c-19 -23 -35 -49 -35 -58 0 -8 15 -36 33 -61 l32
-47 3 -174 3 -174 29 -15 c34 -18 173 -40 195 -31 26 9 56 86 43 109 -13 25
-2 131 19 175 22 46 50 62 105 62 76 0 108 -49 108 -170 1 -122 63 -179 205
-188 112 -7 105 -32 105 371 1 222 5 377 14 441 12 94 12 100 -8 140 -30 58
-88 86 -181 86 -75 0 -104 -12 -127 -53 -9 -15 -13 -73 -13 -187 0 -127 -3
-172 -15 -195 -15 -29 -17 -30 -102 -33 -79 -3 -87 -1 -93 17 -3 11 -5 91 -3
178 3 148 2 161 -20 205 -38 78 -130 107 -226 73z"/>
<path d="M14894 1061 c-31 -19 -81 -92 -125 -183 -13 -27 -26 -48 -29 -48 -3
0 -4 31 -2 69 3 41 -1 77 -8 90 -20 38 -70 61 -131 61 -96 0 -93 8 -85 -251
10 -360 22 -423 88 -472 14 -11 49 -22 76 -25 l49 -4 6 99 c7 102 31 211 68
314 22 59 39 69 39 23 0 -53 49 -112 109 -133 35 -11 151 -16 151 -5 0 3 -9
19 -21 35 -12 17 -23 47 -26 69 -6 43 19 166 50 249 l20 55 -33 27 c-31 27
-97 49 -142 49 -13 0 -37 -9 -54 -19z"/>
<path d="M17209 1055 c-20 -11 -28 -24 -33 -61 -3 -26 -6 -235 -6 -466 0 -450
1 -456 52 -492 25 -18 124 -22 148 -6 13 8 14 38 11 195 -2 102 1 185 5 185 5
0 34 -7 64 -15 86 -23 103 -20 145 26 75 83 107 197 109 384 2 182 -30 235
-141 235 -58 0 -133 -34 -149 -68 -10 -21 -12 -19 -16 23 -3 25 -11 52 -18 60
-16 20 -135 20 -171 0z m293 -286 c-3 -110 -23 -194 -51 -223 -20 -19 -21 -19
-41 -1 -25 23 -27 79 -4 156 21 70 74 171 88 166 7 -3 10 -37 8 -98z"/>
<path d="M12703 1036 c-91 -29 -148 -81 -189 -171 -24 -51 -28 -77 -32 -172
-5 -130 6 -187 49 -254 54 -85 147 -128 294 -136 74 -4 96 -1 125 14 70 36
114 140 138 324 12 90 -4 218 -34 270 -52 90 -246 159 -351 125z m174 -144
c37 -96 12 -367 -41 -445 -36 -53 -51 -56 -89 -19 -55 53 -68 127 -47 260 6
34 20 87 31 116 23 62 93 148 114 140 8 -3 22 -27 32 -52z"/>
<path d="M13294 1036 c-47 -21 -99 -89 -124 -164 -28 -84 -38 -229 -20 -302
20 -84 92 -150 165 -150 32 0 32 -10 -1 -41 -64 -58 -93 -185 -60 -262 29 -70
124 -117 235 -117 123 1 184 37 199 120 5 25 5 126 0 225 -12 263 -11 438 4
537 15 96 8 125 -36 147 -12 5 -91 12 -176 15 -119 4 -162 3 -186 -8z m181
-122 c34 -34 -7 -214 -72 -311 -42 -64 -47 -67 -64 -46 -20 23 -14 134 10 214
20 62 81 159 101 159 5 0 16 -7 25 -16z m25 -508 c0 -2 4 -26 10 -55 9 -51 4
-107 -21 -198 -10 -36 -16 -43 -36 -43 -13 0 -35 11 -48 25 -21 20 -25 34 -25
85 0 71 23 124 70 164 28 23 50 33 50 22z"/>
<path d="M14200 1043 c-179 -10 -252 -22 -294 -47 -120 -70 -176 -220 -176
-467 0 -148 9 -171 84 -205 84 -38 136 -42 189 -11 54 32 117 100 117 127 0
11 5 20 10 20 6 0 10 -11 10 -24 0 -14 12 -39 26 -56 73 -87 227 -105 284 -33
37 47 23 225 -22 273 -31 33 -48 11 -48 -65 0 -63 -11 -83 -38 -66 -38 23 -51
187 -28 351 23 161 22 167 -16 190 -18 11 -35 19 -38 18 -3 -1 -30 -3 -60 -5z
m-106 -185 c19 -31 -49 -318 -89 -375 -22 -32 -53 -30 -61 3 -13 52 3 206 29
277 38 104 90 145 121 95z"/>
<path d="M16490 1043 c-97 -16 -160 -57 -195 -126 -23 -48 -25 -60 -25 -202 0
-172 10 -219 63 -299 80 -120 271 -154 371 -66 52 46 62 81 41 135 -9 25 -20
45 -23 45 -4 0 -27 -23 -51 -51 -53 -62 -80 -74 -126 -55 -26 11 -36 23 -44
53 -6 21 -11 41 -11 45 0 4 26 5 58 2 47 -5 66 -3 99 14 88 45 119 115 110
252 -9 134 -48 219 -113 246 -32 13 -99 16 -154 7z m56 -179 c18 -70 -26 -252
-58 -242 -29 10 -20 183 12 236 24 39 37 41 46 6z"/>
<path d="M18210 1043 c-179 -10 -252 -22 -294 -47 -120 -70 -176 -220 -176
-467 0 -148 9 -171 84 -205 84 -38 136 -42 189 -11 54 32 117 100 117 127 0
11 5 20 10 20 6 0 10 -11 10 -24 0 -14 12 -39 26 -56 73 -87 227 -105 284 -33
37 47 23 225 -22 273 -31 33 -48 11 -48 -65 0 -63 -11 -83 -38 -66 -38 23 -51
187 -28 351 23 161 22 167 -16 190 -18 11 -35 19 -38 18 -3 -1 -30 -3 -60 -5z
m-106 -185 c19 -31 -49 -318 -89 -375 -22 -32 -53 -30 -61 3 -13 52 3 206 29
277 38 104 90 145 121 95z"/>
<path d="M18645 996 c-97 -87 -141 -188 -112 -258 21 -50 67 -81 182 -122 110
-40 141 -62 130 -95 -8 -27 -74 -61 -116 -61 -18 0 -58 10 -91 21 -49 18 -63
20 -85 10 -22 -10 -25 -16 -19 -43 9 -45 47 -81 119 -114 76 -34 109 -34 212
0 145 49 205 100 205 173 0 66 -107 146 -270 204 -36 12 -66 24 -68 25 -2 1 6
25 19 53 22 53 39 66 39 30 0 -30 51 -76 96 -87 75 -19 112 -21 131 -7 17 13
17 14 -1 45 -10 19 -22 67 -28 113 -9 88 -30 135 -69 154 -14 8 -64 13 -119
13 l-95 0 -60 -54z"/>
<path d="M19333 1036 c-91 -29 -148 -81 -189 -171 -24 -51 -28 -77 -32 -172
-5 -130 6 -187 49 -254 54 -85 147 -128 294 -136 74 -4 96 -1 125 14 70 36
114 140 138 324 12 90 -4 218 -34 270 -52 90 -246 159 -351 125z m174 -144
c37 -96 12 -367 -41 -445 -36 -53 -51 -56 -89 -19 -55 53 -68 127 -47 260 6
34 20 87 31 116 23 62 93 148 114 140 8 -3 22 -27 32 -52z"/>
</g>
</svg>
